<?xml version="1.0" encoding="UTF-8" standalone="no"?>
<!DOCTYPE svg PUBLIC "-//W3C//DTD SVG 1.1//EN" "http://www.w3.org/Graphics/SVG/1.1/DTD/svg11.dtd">
<svg xmlns="http://www.w3.org/2000/svg" version="1.1" viewBox="0 0 1759 596" width="1759.0pt" height="596.0pt">
<path d="M 0.00 0.00 L 1759.00 0.00 L 1759.00 596.00 L 0.00 596.00 L 0.00 0.00 Z" fill="#bac8b6" />
<path d="M 691.11 25.12 C 694.15 24.23 697.82 24.86 701.00 24.72 C 838.36 24.69 975.70 24.74 1113.03 24.71 C 1115.50 24.51 1116.55 26.34 1118.15 27.84 C 1120.18 30.14 1122.63 32.35 1124.11 35.05 C 1124.53 37.65 1124.36 40.37 1124.37 43.00 C 1124.21 66.29 1124.40 89.72 1124.32 113.01 C 1124.42 115.68 1122.33 117.35 1122.43 119.97 C 1122.42 233.61 1122.39 347.26 1122.45 460.90 C 1124.15 464.03 1129.03 467.20 1128.58 471.00 C 1128.29 485.37 1128.47 499.76 1128.45 514.14 C 1126.19 516.94 1123.74 519.57 1121.26 522.17 C 1121.38 538.46 1121.56 554.78 1121.35 571.07 L 1120.14 572.46 L 1118.95 570.89 C 1118.28 555.64 1118.74 540.27 1118.51 525.00 C 1118.47 523.02 1118.79 521.10 1119.21 519.18 C 1121.24 517.28 1123.32 515.47 1125.10 513.32 C 1125.73 508.47 1125.37 503.89 1125.43 499.00 C 1125.46 489.66 1125.38 480.32 1125.20 470.98 C 1125.44 466.98 1119.37 464.43 1119.74 460.01 C 1119.46 440.92 1120.32 421.73 1119.38 402.65 C 1119.55 397.76 1119.50 392.89 1119.49 388.00 C 1119.50 337.33 1119.44 286.67 1119.50 236.00 C 1119.56 232.82 1119.55 229.65 1119.15 226.49 C 1119.80 206.68 1119.33 186.82 1119.46 167.00 C 1119.17 155.95 1119.79 144.91 1119.34 133.86 C 1119.38 129.43 1119.72 125.07 1119.15 120.64 C 1116.49 123.19 1114.19 126.06 1111.58 128.65 C 1107.39 132.57 1103.44 136.63 1099.50 140.80 C 1098.34 141.85 1097.12 142.82 1095.92 143.82 L 1096.05 142.44 C 1092.71 141.68 1089.16 142.04 1085.76 141.59 C 1088.85 141.54 1091.97 141.64 1095.05 141.34 C 1100.74 137.69 1104.97 130.51 1109.94 125.94 C 1113.65 122.01 1118.11 118.55 1121.28 114.19 C 1121.31 112.73 1121.31 111.27 1121.27 109.80 C 1121.21 87.54 1121.27 65.27 1121.18 43.00 C 1121.06 40.32 1121.69 37.37 1120.10 35.08 C 1119.24 33.76 1118.17 32.55 1117.11 31.39 C 1115.91 30.22 1114.63 28.48 1113.00 27.97 C 1110.34 27.86 1107.66 28.18 1105.00 28.21 C 1020.84 28.17 936.64 28.14 852.47 28.26 C 845.64 27.60 838.85 27.95 832.00 27.86 C 786.39 27.89 740.57 27.73 694.98 27.91 C 692.07 27.77 690.86 29.90 688.96 31.66 L 687.45 33.21 C 686.84 33.83 686.24 34.45 685.64 35.08 C 685.11 37.41 685.19 39.64 685.23 42.00 C 685.53 59.35 684.81 76.66 684.98 94.00 C 684.99 100.34 685.11 106.67 684.77 113.01 C 684.07 113.81 683.38 114.62 682.70 115.43 C 682.29 114.37 682.09 113.23 682.09 112.01 C 682.15 87.36 682.10 62.64 682.11 37.99 C 682.11 36.18 682.18 34.86 683.40 33.44 C 685.70 30.53 688.07 27.27 691.11 25.12 Z" fill="#2b241f" />
<path d="M 694.98 27.91 C 740.57 27.73 786.39 27.89 832.00 27.86 C 838.85 27.95 845.64 27.60 852.47 28.26 C 848.35 32.52 842.42 31.91 836.98 32.52 C 830.11 33.36 823.40 33.42 816.84 35.91 C 811.55 36.27 806.29 36.08 801.00 36.12 C 787.00 36.07 772.99 36.47 759.00 36.33 C 754.97 36.26 751.01 36.77 747.00 37.06 C 742.08 37.42 737.51 36.54 732.67 37.85 C 725.12 39.10 717.25 37.96 709.60 38.36 C 707.88 37.80 707.49 37.93 705.98 38.81 C 702.83 38.66 699.59 38.83 696.47 38.35 C 694.65 36.59 693.05 34.87 690.74 33.72 C 690.69 33.14 690.65 32.55 690.60 31.97 L 688.96 31.66 C 690.86 29.90 692.07 27.77 694.98 27.91 Z" fill="#788164" />
<path d="M 852.47 28.26 C 936.64 28.14 1020.84 28.17 1105.00 28.21 C 1107.66 28.18 1110.34 27.86 1113.00 27.97 C 1114.63 28.48 1115.91 30.22 1117.11 31.39 C 1113.56 34.09 1110.11 36.57 1109.25 41.25 C 1107.80 41.78 1106.34 42.29 1104.88 42.77 C 1103.36 41.33 1101.77 39.95 1100.13 38.66 L 1098.43 39.53 C 1095.96 39.05 1093.52 38.78 1091.00 38.84 C 1052.00 38.91 1013.00 38.87 974.00 38.81 C 914.33 38.82 854.67 38.96 795.00 38.70 C 788.92 38.66 782.87 38.89 776.80 38.47 C 787.85 37.97 798.94 38.41 810.00 38.34 C 813.52 38.30 816.81 37.47 820.12 36.38 C 819.03 36.21 817.93 36.06 816.84 35.91 C 823.40 33.42 830.11 33.36 836.98 32.52 C 842.42 31.91 848.35 32.52 852.47 28.26 Z" fill="#a58e57" />
<path d="M 688.96 31.66 L 690.60 31.97 C 690.65 32.55 690.69 33.14 690.74 33.72 C 693.05 34.87 694.65 36.59 696.47 38.35 C 699.59 38.83 702.83 38.66 705.98 38.81 C 703.72 41.35 701.42 43.78 698.84 46.01 C 697.89 44.96 696.92 43.92 695.99 42.85 C 693.36 39.45 690.21 36.52 687.45 33.21 L 688.96 31.66 Z" fill="#a49268" />
<path d="M 1117.11 31.39 C 1118.17 32.55 1119.24 33.76 1120.10 35.08 L 1120.21 36.61 C 1119.21 36.18 1118.21 35.74 1117.20 35.34 C 1114.51 38.69 1110.52 41.80 1110.43 46.35 C 1109.74 54.21 1110.46 62.36 1109.37 70.20 L 1108.11 71.42 C 1107.98 66.94 1107.65 62.49 1107.81 58.00 C 1107.83 54.62 1108.25 50.68 1107.15 47.45 C 1106.60 45.75 1105.92 44.22 1104.88 42.77 C 1106.34 42.29 1107.80 41.78 1109.25 41.25 C 1110.11 36.57 1113.56 34.09 1117.11 31.39 Z" fill="#bfa86c" />
<path d="M 687.45 33.21 C 690.21 36.52 693.36 39.45 695.99 42.85 C 696.17 50.23 696.28 57.62 696.06 65.00 C 695.91 66.77 695.96 69.28 694.68 70.66 C 693.54 71.72 691.70 71.50 690.23 71.65 C 690.04 72.38 689.86 73.11 689.67 73.84 C 689.25 73.33 688.83 72.82 688.41 72.31 C 687.89 73.62 687.38 74.94 686.99 76.30 C 686.57 72.74 685.69 69.57 685.60 66.00 C 685.65 55.70 685.66 45.39 685.64 35.08 C 686.24 34.45 686.84 33.83 687.45 33.21 Z" fill="#836f52" />
<path d="M 685.64 35.08 C 685.66 45.39 685.65 55.70 685.60 66.00 C 685.69 69.57 686.57 72.74 686.99 76.30 C 686.00 81.27 686.50 85.97 686.42 91.00 C 686.54 97.13 686.20 103.20 686.70 109.32 C 687.77 109.10 688.84 108.89 689.90 108.67 C 690.31 109.81 690.71 110.96 691.12 112.10 C 693.75 111.97 694.29 111.37 695.97 109.53 L 696.64 110.08 C 702.38 116.96 709.41 122.79 714.92 129.82 C 715.44 130.71 715.94 131.61 716.43 132.52 C 713.55 134.85 713.30 137.90 712.79 141.33 L 710.96 141.24 C 707.72 137.69 704.19 134.36 701.26 130.56 C 696.70 124.85 690.63 120.10 685.71 114.78 C 685.40 114.18 685.09 113.59 684.77 113.01 C 685.11 106.67 684.99 100.34 684.98 94.00 C 684.81 76.66 685.53 59.35 685.23 42.00 C 685.19 39.64 685.11 37.41 685.64 35.08 Z" fill="#625848" />
<path d="M 1117.20 35.34 C 1118.21 35.74 1119.21 36.18 1120.21 36.61 L 1120.10 35.08 C 1121.69 37.37 1121.06 40.32 1121.18 43.00 C 1121.27 65.27 1121.21 87.54 1121.27 109.80 C 1120.68 109.62 1120.09 109.45 1119.49 109.28 C 1119.14 110.05 1118.80 110.81 1118.46 111.58 C 1117.10 111.12 1115.70 110.59 1114.29 110.33 C 1113.68 111.19 1113.10 112.07 1112.55 112.97 C 1111.34 112.75 1110.14 112.47 1108.92 112.23 C 1110.86 109.42 1109.72 105.29 1109.75 102.00 C 1109.17 95.92 1109.63 89.61 1108.28 83.66 C 1107.28 79.32 1107.22 75.79 1108.11 71.42 L 1109.37 70.20 C 1110.46 62.36 1109.74 54.21 1110.43 46.35 C 1110.52 41.80 1114.51 38.69 1117.20 35.34 Z" fill="#907a52" />
<path d="M 759.00 36.33 C 772.99 36.47 787.00 36.07 801.00 36.12 C 806.29 36.08 811.55 36.27 816.84 35.91 C 817.93 36.06 819.03 36.21 820.12 36.38 C 816.81 37.47 813.52 38.30 810.00 38.34 C 798.94 38.41 787.85 37.97 776.80 38.47 C 762.08 38.70 747.38 37.83 732.67 37.85 C 737.51 36.54 742.08 37.42 747.00 37.06 C 751.01 36.77 754.97 36.26 759.00 36.33 Z" fill="#9b966b" />
<path d="M 709.60 38.36 C 706.55 41.40 703.31 44.25 700.32 47.34 C 698.87 48.66 699.08 50.20 698.99 52.00 C 699.05 70.71 698.93 89.31 699.36 108.03 C 699.33 110.15 701.25 111.93 702.42 113.54 C 705.57 117.37 708.73 121.26 712.19 124.83 C 713.57 126.12 714.99 127.70 716.99 127.88 C 724.66 128.86 732.35 127.41 740.07 128.52 C 733.29 130.07 726.65 128.52 719.78 129.55 C 718.16 129.63 716.54 129.72 714.92 129.82 C 709.41 122.79 702.38 116.96 696.64 110.08 C 697.52 89.76 696.34 69.33 696.79 48.99 C 696.67 47.71 698.06 46.89 698.84 46.01 C 701.42 43.78 703.72 41.35 705.98 38.81 C 707.49 37.93 707.88 37.80 709.60 38.36 Z" fill="#b1a27b" />
<path d="M 732.67 37.85 C 747.38 37.83 762.08 38.70 776.80 38.47 C 782.87 38.89 788.92 38.66 795.00 38.70 C 854.67 38.96 914.33 38.82 974.00 38.81 C 1013.00 38.87 1052.00 38.91 1091.00 38.84 C 1093.52 38.78 1095.96 39.05 1098.43 39.53 C 1101.33 42.19 1104.07 44.98 1107.15 47.45 C 1108.25 50.68 1107.83 54.62 1107.81 58.00 C 1107.65 62.49 1107.98 66.94 1108.11 71.42 C 1107.22 75.79 1107.28 79.32 1108.28 83.66 C 1107.31 92.57 1108.39 101.61 1107.20 110.45 C 1106.33 109.87 1105.45 109.29 1104.59 108.69 C 1104.29 106.78 1104.17 105.04 1102.86 103.49 C 1102.27 97.64 1102.64 91.86 1102.55 86.00 C 1102.50 74.82 1102.62 63.64 1102.62 52.46 C 1099.81 50.24 1097.41 47.61 1094.75 45.23 C 1093.33 43.74 1090.89 44.19 1089.00 44.03 C 1066.00 43.42 1043.01 43.81 1020.00 43.67 C 1001.00 43.92 982.00 43.54 963.00 43.63 C 894.97 43.74 827.01 43.60 759.00 43.58 C 744.15 43.63 729.78 43.39 714.98 44.01 C 712.35 43.94 711.17 45.82 709.40 47.40 C 707.65 49.22 705.56 50.95 704.21 53.10 C 703.80 65.35 704.59 77.72 704.10 89.99 C 703.71 95.75 703.95 101.51 703.71 107.27 C 702.34 102.49 703.21 97.97 702.54 92.99 C 702.35 97.73 702.39 102.36 701.41 107.03 C 700.86 109.54 703.58 111.02 702.42 113.54 C 701.25 111.93 699.33 110.15 699.36 108.03 C 698.93 89.31 699.05 70.71 698.99 52.00 C 699.08 50.20 698.87 48.66 700.32 47.34 C 703.31 44.25 706.55 41.40 709.60 38.36 C 717.25 37.96 725.12 39.10 732.67 37.85 Z" fill="#695b45" />
<path d="M 1100.13 38.66 C 1101.77 39.95 1103.36 41.33 1104.88 42.77 C 1105.92 44.22 1106.60 45.75 1107.15 47.45 C 1104.07 44.98 1101.33 42.19 1098.43 39.53 L 1100.13 38.66 Z" fill="#d8c892" />
<path d="M 695.99 42.85 C 696.92 43.92 697.89 44.96 698.84 46.01 C 698.06 46.89 696.67 47.71 696.79 48.99 C 696.34 69.33 697.52 89.76 696.64 110.08 L 695.97 109.53 C 694.29 111.37 693.75 111.97 691.12 112.10 C 690.71 110.96 690.31 109.81 689.90 108.67 C 688.84 108.89 687.77 109.10 686.70 109.32 C 686.20 103.20 686.54 97.13 686.42 91.00 C 686.50 85.97 686.00 81.27 686.99 76.30 C 687.38 74.94 687.89 73.62 688.41 72.31 C 688.83 72.82 689.25 73.33 689.67 73.84 C 689.86 73.11 690.04 72.38 690.23 71.65 C 691.70 71.50 693.54 71.72 694.68 70.66 C 695.96 69.28 695.91 66.77 696.06 65.00 C 696.28 57.62 696.17 50.23 695.99 42.85 Z" fill="#947e52" />
<path d="M 714.98 44.01 C 729.78 43.39 744.15 43.63 759.00 43.58 C 827.01 43.60 894.97 43.74 963.00 43.63 C 982.00 43.54 1001.00 43.92 1020.00 43.67 C 1043.01 43.81 1066.00 43.42 1089.00 44.03 C 1090.89 44.19 1093.33 43.74 1094.75 45.23 C 1097.41 47.61 1099.81 50.24 1102.62 52.46 C 1102.62 63.64 1102.50 74.82 1102.55 86.00 C 1102.64 91.86 1102.27 97.64 1102.86 103.49 C 1102.79 105.15 1102.83 106.92 1102.40 108.53 C 1100.71 111.29 1098.11 113.55 1095.98 115.99 C 1093.73 118.33 1091.74 121.21 1089.10 123.12 C 1086.91 123.78 1084.29 123.40 1082.00 123.47 C 1055.67 123.32 1029.33 123.63 1003.00 123.51 C 907.81 123.33 812.61 123.72 717.43 123.48 C 714.10 120.47 711.24 117.07 708.31 113.67 C 706.71 111.77 704.22 109.78 703.71 107.27 C 703.95 101.51 703.71 95.75 704.10 89.99 C 704.59 77.72 703.80 65.35 704.21 53.10 C 705.56 50.95 707.65 49.22 709.40 47.40 C 711.17 45.82 712.35 43.94 714.98 44.01 Z" fill="#434431" />
<path d="M 714.17 46.19 C 717.58 45.27 721.48 45.80 725.00 45.76 C 767.99 46.06 811.00 45.72 854.00 45.88 C 912.00 45.81 970.00 45.82 1028.00 45.82 C 1048.00 45.84 1068.01 45.95 1088.00 45.64 C 1089.76 45.75 1091.97 45.43 1093.35 46.68 C 1095.18 48.15 1096.82 49.87 1098.43 51.57 C 1099.61 52.96 1100.89 53.98 1100.75 55.97 C 1100.41 72.34 1100.62 88.67 1100.58 105.03 C 1100.90 109.26 1096.31 111.94 1093.83 114.83 C 1091.18 117.20 1089.02 121.51 1085.01 121.16 C 1077.35 121.34 1069.67 121.33 1062.00 121.36 C 1019.67 120.94 977.33 121.32 935.00 121.20 C 869.67 121.35 804.33 120.98 739.00 121.40 C 732.67 121.29 726.30 121.50 719.98 121.14 C 717.48 121.18 715.74 118.50 714.14 116.89 C 711.65 113.83 708.32 111.12 706.40 107.67 C 705.74 104.92 706.18 101.83 706.13 99.00 C 706.16 85.33 706.14 71.66 706.15 58.00 C 706.28 56.32 705.97 54.53 707.15 53.19 C 709.17 50.72 711.37 47.79 714.17 46.19 Z" fill="#546864" />
<path d="M 719.98 49.08 C 758.23 49.44 796.71 49.19 835.00 49.24 C 888.65 49.40 942.35 49.21 996.00 49.36 C 1026.35 49.11 1056.65 49.59 1087.01 49.02 C 1091.38 48.33 1094.85 52.91 1096.48 56.37 C 1096.99 71.79 1096.29 87.54 1096.87 103.00 C 1096.74 104.65 1097.24 106.62 1095.85 107.83 C 1093.57 110.23 1091.02 112.35 1088.81 114.84 C 1087.77 115.80 1086.52 117.62 1084.98 117.59 C 1064.47 118.32 1043.53 118.09 1023.00 117.91 C 929.90 117.94 837.08 117.83 744.00 117.89 C 735.85 117.50 727.55 118.12 719.46 117.40 C 716.71 115.30 714.66 112.25 712.17 109.83 C 711.27 108.69 709.39 107.30 709.57 105.71 C 710.06 92.13 709.76 78.59 709.82 65.00 C 710.04 61.56 708.46 57.72 710.99 54.98 C 713.22 52.18 716.03 48.89 719.98 49.08 Z" fill="#5e7b78" />
<path d="M 1108.28 83.66 C 1109.63 89.61 1109.17 95.92 1109.75 102.00 C 1109.72 105.29 1110.86 109.42 1108.92 112.23 C 1105.47 115.06 1102.75 118.46 1099.60 121.60 C 1097.16 124.04 1094.81 126.55 1092.71 129.30 L 1092.32 129.81 C 1088.55 129.57 1084.78 129.45 1081.00 129.50 C 1066.33 129.67 1051.67 129.31 1037.00 129.35 C 973.00 129.45 908.99 129.47 845.00 129.43 C 840.97 129.40 837.05 128.52 833.00 128.67 C 825.27 128.91 817.53 128.53 809.81 128.87 C 817.07 127.62 824.65 128.84 831.99 128.20 C 836.66 127.74 841.30 127.43 846.00 127.53 C 850.41 127.70 854.62 126.51 859.00 126.46 C 906.97 126.51 955.03 126.32 1003.00 126.49 C 1006.61 126.61 1009.52 123.83 1012.75 125.36 C 1017.55 127.32 1021.96 126.42 1027.00 126.58 C 1046.01 126.65 1065.00 126.51 1084.01 126.55 C 1086.41 126.62 1088.68 127.27 1091.05 127.52 C 1093.04 126.63 1094.64 124.71 1096.19 123.22 C 1100.03 119.20 1104.33 115.17 1107.20 110.45 C 1108.39 101.61 1107.31 92.57 1108.28 83.66 Z" fill="#b4a673" />
<path d="M 702.54 92.99 C 703.21 97.97 702.34 102.49 703.71 107.27 C 704.22 109.78 706.71 111.77 708.31 113.67 C 711.24 117.07 714.10 120.47 717.43 123.48 C 812.61 123.72 907.81 123.33 1003.00 123.51 C 1029.33 123.63 1055.67 123.32 1082.00 123.47 C 1084.29 123.40 1086.91 123.78 1089.10 123.12 C 1091.74 121.21 1093.73 118.33 1095.98 115.99 C 1098.11 113.55 1100.71 111.29 1102.40 108.53 C 1102.83 106.92 1102.79 105.15 1102.86 103.49 C 1104.17 105.04 1104.29 106.78 1104.59 108.69 C 1105.45 109.29 1106.33 109.87 1107.20 110.45 C 1104.33 115.17 1100.03 119.20 1096.19 123.22 C 1094.64 124.71 1093.04 126.63 1091.05 127.52 C 1088.68 127.27 1086.41 126.62 1084.01 126.55 C 1065.00 126.51 1046.01 126.65 1027.00 126.58 C 1021.96 126.42 1017.55 127.32 1012.75 125.36 C 1009.52 123.83 1006.61 126.61 1003.00 126.49 C 955.03 126.32 906.97 126.51 859.00 126.46 C 854.62 126.51 850.41 127.70 846.00 127.53 C 841.30 127.43 836.66 127.74 831.99 128.20 C 824.65 128.84 817.07 127.62 809.81 128.87 C 807.88 129.16 805.96 129.47 804.00 129.48 C 784.00 129.31 763.99 129.31 743.99 129.48 C 735.91 129.75 727.86 129.76 719.78 129.55 C 726.65 128.52 733.29 130.07 740.07 128.52 C 732.35 127.41 724.66 128.86 716.99 127.88 C 714.99 127.70 713.57 126.12 712.19 124.83 C 708.73 121.26 705.57 117.37 702.42 113.54 C 703.58 111.02 700.86 109.54 701.41 107.03 C 702.39 102.36 702.35 97.73 702.54 92.99 Z" fill="#797859" />
<path d="M 1119.49 109.28 C 1120.09 109.45 1120.68 109.62 1121.27 109.80 C 1121.31 111.27 1121.31 112.73 1121.28 114.19 C 1118.42 113.34 1115.51 113.20 1112.55 112.97 C 1113.10 112.07 1113.68 111.19 1114.29 110.33 C 1115.70 110.59 1117.10 111.12 1118.46 111.58 C 1118.80 110.81 1119.14 110.05 1119.49 109.28 Z" fill="#9c8b69" />
<path d="M 1108.92 112.23 C 1110.14 112.47 1111.34 112.75 1112.55 112.97 C 1115.51 113.20 1118.42 113.34 1121.28 114.19 C 1118.11 118.55 1113.65 122.01 1109.94 125.94 C 1104.97 130.51 1100.74 137.69 1095.05 141.34 C 1091.97 141.64 1088.85 141.54 1085.76 141.59 C 1074.20 140.99 1062.57 141.46 1051.00 141.42 C 980.99 141.35 911.00 141.45 841.00 141.34 C 808.00 141.21 774.99 141.65 742.00 141.20 C 732.26 141.17 722.53 141.42 712.79 141.33 C 713.30 137.90 713.55 134.85 716.43 132.52 C 715.94 131.61 715.44 130.71 714.92 129.82 C 716.54 129.72 718.16 129.63 719.78 129.55 C 727.86 129.76 735.91 129.75 743.99 129.48 C 763.99 129.31 784.00 129.31 804.00 129.48 C 805.96 129.47 807.88 129.16 809.81 128.87 C 817.53 128.53 825.27 128.91 833.00 128.67 C 837.05 128.52 840.97 129.40 845.00 129.43 C 908.99 129.47 973.00 129.45 1037.00 129.35 C 1051.67 129.31 1066.33 129.67 1081.00 129.50 C 1084.78 129.45 1088.55 129.57 1092.32 129.81 C 1091.73 130.63 1091.16 131.46 1090.60 132.30 C 1092.31 134.15 1092.87 136.81 1094.87 138.30 C 1094.98 135.17 1096.41 130.91 1092.71 129.30 C 1094.81 126.55 1097.16 124.04 1099.60 121.60 C 1102.75 118.46 1105.47 115.06 1108.92 112.23 Z" fill="#5c5140" />
<path d="M 684.77 113.01 C 685.09 113.59 685.40 114.18 685.71 114.78 C 685.32 117.08 684.98 118.22 686.88 119.98 C 687.34 125.33 687.01 130.65 686.85 136.00 C 686.77 145.07 686.78 154.14 687.21 163.20 C 686.60 169.15 686.87 175.04 686.84 181.00 C 686.91 190.35 686.71 199.69 687.04 209.03 C 687.26 229.68 687.32 250.36 686.84 271.00 C 686.90 277.67 686.73 284.33 687.09 291.00 C 687.35 311.00 687.06 331.01 687.21 351.00 C 686.64 372.32 686.80 393.68 687.11 415.00 C 686.87 431.02 687.24 447.02 687.22 463.04 C 684.94 465.40 681.91 467.69 681.03 470.97 C 681.16 473.98 681.23 476.99 681.06 480.00 C 680.54 490.36 681.15 500.68 680.97 511.02 C 680.85 512.31 681.18 513.32 681.97 514.06 C 683.95 516.33 686.08 518.47 688.21 520.60 C 688.85 534.70 688.35 548.88 688.45 563.00 C 688.61 566.05 687.68 569.89 689.50 572.46 C 690.84 573.22 692.39 574.42 693.97 574.48 C 716.52 574.69 739.16 574.42 761.66 574.58 C 762.42 573.71 763.18 572.83 763.92 571.94 C 772.95 572.22 781.97 572.07 791.00 571.85 C 841.00 571.86 891.00 571.93 941.00 571.88 C 972.00 571.99 1003.00 571.76 1034.00 572.12 C 1036.60 572.18 1039.34 571.90 1041.89 572.41 C 1043.99 573.11 1045.84 574.17 1048.11 574.31 C 1069.74 574.66 1091.39 574.33 1113.01 574.50 C 1115.05 574.66 1116.02 573.65 1117.44 572.43 C 1117.95 571.92 1118.45 571.41 1118.95 570.89 L 1120.14 572.46 C 1118.51 574.12 1116.75 575.67 1115.01 577.22 C 1091.98 577.39 1068.92 577.04 1045.97 577.37 C 1043.49 577.46 1041.46 574.63 1039.03 574.59 C 948.08 574.68 856.94 574.74 765.99 574.60 C 764.77 575.50 763.51 576.62 762.09 577.20 C 758.75 577.53 755.35 577.27 752.00 577.29 C 732.02 577.21 712.04 577.33 692.06 577.24 C 689.87 574.97 684.84 572.65 685.53 569.00 C 685.60 553.73 685.67 538.37 685.55 523.10 C 684.57 519.66 680.03 517.14 678.27 513.94 C 677.98 499.69 678.32 485.27 678.16 470.98 C 677.57 467.10 682.16 464.00 684.32 461.18 C 684.00 423.47 684.34 385.72 684.21 348.00 C 684.15 272.32 684.10 196.68 684.17 121.00 C 684.32 118.83 683.70 117.29 682.70 115.43 C 683.38 114.62 684.07 113.81 684.77 113.01 Z" fill="#262220" />
<path d="M 685.71 114.78 C 690.63 120.10 696.70 124.85 701.26 130.56 C 704.19 134.36 707.72 137.69 710.96 141.24 L 712.79 141.33 C 722.53 141.42 732.26 141.17 742.00 141.20 C 774.99 141.65 808.00 141.21 841.00 141.34 C 911.00 141.45 980.99 141.35 1051.00 141.42 C 1062.57 141.46 1074.20 140.99 1085.76 141.59 C 1089.16 142.04 1092.71 141.68 1096.05 142.44 C 1094.75 143.18 1093.41 143.85 1092.06 144.48 C 975.73 144.60 859.33 144.49 743.00 144.54 C 733.28 144.67 723.54 144.30 713.83 144.73 C 713.62 209.08 713.78 273.46 713.72 337.83 C 713.19 338.61 712.67 339.40 712.16 340.20 C 712.46 305.14 711.94 270.06 712.21 235.00 C 712.08 212.67 712.36 190.33 712.04 168.00 C 712.04 160.38 712.47 152.64 711.96 145.04 C 710.55 143.01 708.23 141.55 706.42 139.86 C 702.87 136.39 699.38 132.85 695.89 129.32 C 692.98 126.09 690.06 122.94 686.88 119.98 C 684.98 118.22 685.32 117.08 685.71 114.78 Z" fill="#2f2a29" />
<path d="M 686.88 119.98 C 690.06 122.94 692.98 126.09 695.89 129.32 C 695.51 131.06 695.20 132.81 695.03 134.58 C 694.05 142.01 695.44 149.38 694.06 156.82 C 693.25 158.06 692.41 159.27 691.60 160.50 C 693.72 162.14 691.34 162.57 690.40 164.02 C 689.72 162.35 689.06 160.67 688.42 158.99 C 688.01 160.39 687.58 161.79 687.21 163.20 C 686.78 154.14 686.77 145.07 686.85 136.00 C 687.01 130.65 687.34 125.33 686.88 119.98 Z" fill="#5d574a" />
<path d="M 1119.15 120.64 C 1119.72 125.07 1119.38 129.43 1119.34 133.86 C 1117.81 135.50 1116.44 136.56 1114.40 137.51 C 1114.62 139.95 1114.21 141.99 1113.46 144.30 C 1115.15 147.69 1117.26 151.52 1117.68 155.32 C 1117.84 157.09 1116.26 158.00 1117.27 159.68 C 1115.93 162.36 1115.19 164.83 1115.09 167.83 C 1114.32 167.59 1113.55 167.35 1112.79 167.10 C 1112.47 163.85 1111.95 160.62 1111.72 157.35 L 1111.73 156.00 C 1111.61 152.64 1111.47 149.32 1111.92 145.98 C 1112.68 140.15 1111.23 134.53 1111.58 128.65 C 1114.19 126.06 1116.49 123.19 1119.15 120.64 Z" fill="#544e41" />
<path d="M 1111.58 128.65 C 1111.23 134.53 1112.68 140.15 1111.92 145.98 C 1111.47 149.32 1111.61 152.64 1111.73 156.00 C 1110.87 155.82 1110.01 155.65 1109.15 155.50 C 1104.89 157.47 1105.51 162.02 1103.31 165.99 C 1102.64 166.67 1101.97 167.35 1101.29 168.04 C 1100.90 163.31 1100.83 158.74 1101.05 154.00 C 1101.25 149.43 1100.27 145.26 1099.50 140.80 C 1103.44 136.63 1107.39 132.57 1111.58 128.65 Z" fill="#726852" />
<path d="M 695.89 129.32 C 699.38 132.85 702.87 136.39 706.42 139.86 C 705.42 146.73 705.28 153.54 705.13 160.46 C 704.31 160.12 703.52 159.72 702.75 159.28 C 701.32 156.49 700.50 153.59 698.32 151.21 C 698.77 150.95 699.23 150.68 699.68 150.41 C 698.80 150.20 697.93 149.99 697.06 149.78 C 696.09 145.05 696.93 140.39 696.45 135.66 L 695.03 134.58 C 695.20 132.81 695.51 131.06 695.89 129.32 Z" fill="#776c52" />
<path d="M 1092.32 129.81 L 1092.71 129.30 C 1096.41 130.91 1094.98 135.17 1094.87 138.30 C 1092.87 136.81 1092.31 134.15 1090.60 132.30 C 1091.16 131.46 1091.73 130.63 1092.32 129.81 Z" fill="#7b6f5b" />
<path d="M 1119.34 133.86 C 1119.79 144.91 1119.17 155.95 1119.46 167.00 C 1119.33 186.82 1119.80 206.68 1119.15 226.49 C 1117.93 224.18 1117.83 221.77 1117.57 219.24 C 1117.38 216.72 1114.85 215.68 1115.04 213.02 C 1115.14 206.65 1114.41 200.36 1114.22 194.00 C 1114.19 191.99 1113.79 190.32 1113.02 188.48 C 1113.91 181.28 1112.96 174.30 1112.79 167.10 C 1113.55 167.35 1114.32 167.59 1115.09 167.83 C 1115.19 164.83 1115.93 162.36 1117.27 159.68 C 1116.26 158.00 1117.84 157.09 1117.68 155.32 C 1117.26 151.52 1115.15 147.69 1113.46 144.30 C 1114.21 141.99 1114.62 139.95 1114.40 137.51 C 1116.44 136.56 1117.81 135.50 1119.34 133.86 Z" fill="#5f594e" />
<path d="M 695.03 134.58 L 696.45 135.66 C 696.93 140.39 696.09 145.05 697.06 149.78 C 697.93 149.99 698.80 150.20 699.68 150.41 C 699.23 150.68 698.77 150.95 698.32 151.21 C 700.50 153.59 701.32 156.49 702.75 159.28 C 703.52 159.72 704.31 160.12 705.13 160.46 C 705.07 166.88 705.34 173.28 704.94 179.70 C 704.64 180.37 704.33 181.04 704.03 181.71 C 702.73 184.61 702.58 187.86 702.29 190.99 C 701.49 200.52 702.13 210.44 700.65 219.91 C 699.15 224.55 696.86 229.09 694.45 233.34 C 694.27 227.66 694.48 222.05 693.91 216.41 C 694.09 212.27 694.39 208.15 694.27 204.00 C 694.01 194.68 694.71 185.32 694.59 176.00 C 694.47 169.57 694.97 163.23 694.06 156.82 C 695.44 149.38 694.05 142.01 695.03 134.58 Z" fill="#6b7e62" />
<path d="M 706.42 139.86 C 708.23 141.55 710.55 143.01 711.96 145.04 C 712.47 152.64 712.04 160.38 712.04 168.00 C 712.36 190.33 712.08 212.67 712.21 235.00 C 711.94 270.06 712.46 305.14 712.16 340.20 C 711.35 350.75 712.11 361.42 711.98 372.00 C 711.82 391.33 712.13 410.67 712.02 430.00 C 711.27 455.32 711.86 480.66 711.69 506.00 C 712.20 515.29 711.26 524.59 711.95 533.86 C 717.96 533.97 723.96 533.90 729.96 533.98 C 730.46 539.53 729.85 545.06 730.26 550.61 C 749.61 551.33 769.02 550.16 788.36 551.08 C 786.66 551.47 784.97 551.93 783.27 552.38 L 783.25 552.81 C 788.12 553.28 792.99 553.76 797.87 554.05 L 797.86 554.89 C 795.50 555.10 793.14 555.37 790.77 555.56 C 783.28 555.60 775.82 555.31 768.34 555.85 C 758.23 555.59 748.12 555.98 738.00 555.57 C 733.59 555.27 728.39 556.34 724.22 554.77 C 723.43 553.08 723.80 550.83 723.74 549.00 C 723.92 546.18 723.60 543.04 724.38 540.32 C 725.62 538.51 727.02 536.81 728.25 534.98 C 725.85 536.31 723.88 538.09 721.01 538.02 C 716.16 538.04 710.69 538.75 706.18 536.97 C 705.89 531.54 706.04 526.11 705.62 520.69 C 705.28 505.31 705.19 489.90 705.10 474.53 C 705.37 471.66 705.12 468.86 704.71 466.02 C 704.08 460.95 706.26 456.28 705.39 451.14 C 704.40 445.42 704.79 439.76 704.72 434.00 C 704.66 428.97 705.72 424.05 705.54 419.00 C 705.32 398.33 706.18 377.67 705.98 357.00 C 705.79 342.67 705.86 328.33 705.46 314.00 C 705.64 275.99 705.52 238.02 705.57 200.00 C 705.55 193.27 705.87 186.36 704.94 179.70 C 705.34 173.28 705.07 166.88 705.13 160.46 C 705.28 153.54 705.42 146.73 706.42 139.86 Z" fill="#5e5647" />
<path d="M 1099.50 140.80 C 1100.27 145.26 1101.25 149.43 1101.05 154.00 C 1100.83 158.74 1100.90 163.31 1101.29 168.04 C 1101.41 172.07 1100.62 175.97 1100.57 180.00 C 1100.44 189.48 1100.73 199.05 1100.06 208.50 C 1099.31 207.12 1098.55 205.89 1098.59 204.27 C 1098.62 199.17 1098.58 194.09 1098.19 189.00 C 1097.81 184.14 1098.00 178.79 1096.55 174.12 C 1096.09 173.52 1095.62 172.93 1095.13 172.36 C 1094.37 166.33 1094.85 160.08 1094.78 154.00 C 1094.88 150.39 1094.34 147.20 1095.92 143.82 C 1097.12 142.82 1098.34 141.85 1099.50 140.80 Z" fill="#5b5248" />
<path d="M 1096.05 142.44 L 1095.92 143.82 C 1094.34 147.20 1094.88 150.39 1094.78 154.00 C 1094.85 160.08 1094.37 166.33 1095.13 172.36 C 1094.65 220.90 1095.02 269.46 1095.01 318.00 C 1094.89 328.34 1095.11 338.66 1095.13 349.00 C 1094.58 386.98 1095.05 425.02 1095.07 463.00 C 1094.78 479.63 1095.47 496.36 1094.80 513.00 C 1094.49 519.96 1095.52 526.79 1094.77 533.72 C 1088.65 533.99 1082.54 534.07 1076.42 534.28 C 1076.58 534.81 1076.74 535.34 1076.90 535.87 C 1075.65 540.55 1076.30 545.67 1075.86 550.58 C 1055.57 550.30 1035.28 551.02 1015.00 550.72 C 1010.90 550.58 1006.83 550.83 1002.75 551.11 C 1000.83 550.95 998.92 550.79 997.00 550.74 C 976.83 550.74 956.65 550.60 936.48 550.80 C 912.32 550.49 888.16 550.91 864.00 550.58 C 845.00 550.58 826.00 550.53 807.00 550.60 C 800.79 550.82 794.53 550.44 788.36 551.08 C 769.02 550.16 749.61 551.33 730.26 550.61 C 729.85 545.06 730.46 539.53 729.96 533.98 C 723.96 533.90 717.96 533.97 711.95 533.86 C 711.26 524.59 712.20 515.29 711.69 506.00 C 711.86 480.66 711.27 455.32 712.02 430.00 C 712.13 410.67 711.82 391.33 711.98 372.00 C 712.11 361.42 711.35 350.75 712.16 340.20 C 712.67 339.40 713.19 338.61 713.72 337.83 C 714.24 345.22 713.88 352.60 713.92 360.00 C 714.26 406.34 713.95 452.66 713.68 499.00 C 713.77 509.90 713.47 520.88 714.24 531.75 C 719.44 532.09 724.73 531.65 729.89 532.34 C 731.05 532.28 731.63 534.11 731.77 535.03 C 732.24 539.37 731.99 543.80 732.11 548.17 C 736.07 548.55 740.02 548.52 744.00 548.43 C 849.67 548.48 955.33 548.43 1061.00 548.48 C 1065.41 548.52 1069.80 548.58 1074.20 548.28 C 1074.88 544.28 1074.64 540.34 1074.46 536.31 C 1074.39 534.98 1074.69 532.67 1076.19 532.27 C 1081.23 531.32 1086.63 532.34 1091.71 531.57 C 1092.54 531.22 1092.47 530.09 1092.58 529.32 C 1092.68 526.55 1092.74 523.77 1092.90 521.00 C 1093.18 515.64 1092.38 510.37 1092.44 505.00 C 1092.46 467.67 1092.44 430.33 1092.45 393.00 C 1092.48 389.52 1092.20 386.07 1091.92 382.61 C 1092.57 377.58 1092.53 372.52 1092.03 367.48 C 1092.28 362.99 1092.44 358.50 1092.46 354.00 C 1092.41 298.34 1092.41 242.66 1092.38 187.00 C 1092.05 172.85 1093.01 158.59 1092.06 144.48 C 1093.41 143.85 1094.75 143.18 1096.05 142.44 Z" fill="#3b3e36" />
<path d="M 713.83 144.73 C 723.54 144.30 733.28 144.67 743.00 144.54 C 859.33 144.49 975.73 144.60 1092.06 144.48 C 1093.01 158.59 1092.05 172.85 1092.38 187.00 C 1092.41 242.66 1092.41 298.34 1092.46 354.00 C 1092.44 358.50 1092.28 362.99 1092.03 367.48 C 1091.08 364.99 1090.72 362.60 1090.68 359.94 C 1090.42 361.44 1090.12 362.92 1089.78 364.39 C 1088.58 363.09 1088.73 361.65 1088.64 360.00 C 1088.63 343.01 1088.66 326.00 1088.62 309.00 C 1087.90 297.36 1088.20 285.67 1088.09 274.00 C 1088.18 253.63 1088.11 233.40 1088.09 213.00 C 1089.05 200.03 1088.48 187.03 1088.62 174.00 C 1088.51 165.80 1089.12 158.07 1088.01 149.96 C 1071.35 149.82 1054.67 150.05 1038.00 150.07 C 932.71 149.90 827.29 150.09 722.00 149.97 C 720.78 150.02 719.56 150.09 718.35 150.20 C 718.18 231.94 718.36 313.30 718.19 395.00 C 718.28 398.67 718.73 402.32 718.69 406.00 C 718.67 439.00 718.67 472.00 718.72 505.00 C 718.54 511.30 718.18 518.41 719.49 524.61 C 721.72 527.21 724.72 527.81 728.00 527.87 C 730.92 528.26 733.83 527.43 735.52 530.42 C 736.60 533.65 735.77 537.27 737.55 540.52 C 739.02 542.90 739.56 545.52 742.99 545.12 C 752.35 544.26 761.63 544.31 771.00 544.88 C 801.99 545.30 833.00 544.73 864.00 545.04 C 902.65 545.26 941.35 544.80 980.00 545.10 C 1005.00 544.74 1030.00 545.24 1055.00 544.89 C 1060.36 544.71 1065.68 545.34 1071.04 545.20 C 1071.44 540.66 1069.84 534.32 1072.34 530.36 C 1074.87 527.13 1081.37 528.46 1085.02 527.92 C 1087.13 527.97 1088.24 526.92 1088.59 524.90 C 1088.67 478.95 1088.63 433.90 1088.65 388.00 C 1088.85 380.22 1088.32 372.38 1088.97 364.62 C 1090.63 365.69 1090.18 367.30 1090.36 369.00 C 1090.41 375.66 1090.14 382.30 1090.49 388.96 C 1090.77 386.79 1091.39 384.72 1091.92 382.61 C 1092.20 386.07 1092.48 389.52 1092.45 393.00 C 1092.44 430.33 1092.46 467.67 1092.44 505.00 C 1092.38 510.37 1093.18 515.64 1092.90 521.00 C 1092.74 523.77 1092.68 526.55 1092.58 529.32 C 1092.47 530.09 1092.54 531.22 1091.71 531.57 C 1086.63 532.34 1081.23 531.32 1076.19 532.27 C 1074.69 532.67 1074.39 534.98 1074.46 536.31 C 1074.64 540.34 1074.88 544.28 1074.20 548.28 C 1069.80 548.58 1065.41 548.52 1061.00 548.48 C 955.33 548.43 849.67 548.48 744.00 548.43 C 740.02 548.52 736.07 548.55 732.11 548.17 C 731.99 543.80 732.24 539.37 731.77 535.03 C 731.63 534.11 731.05 532.28 729.89 532.34 C 724.73 531.65 719.44 532.09 714.24 531.75 C 713.47 520.88 713.77 509.90 713.68 499.00 C 713.95 452.66 714.26 406.34 713.92 360.00 C 713.88 352.60 714.24 345.22 713.72 337.83 C 713.78 273.46 713.62 209.08 713.83 144.73 Z" fill="#4d6360" />
<path d="M 718.35 150.20 C 719.56 150.09 720.78 150.02 722.00 149.97 C 827.29 150.09 932.71 149.90 1038.00 150.07 C 1054.67 150.05 1071.35 149.82 1088.01 149.96 C 1089.12 158.07 1088.51 165.80 1088.62 174.00 C 1088.48 187.03 1089.05 200.03 1088.09 213.00 C 1088.11 233.40 1088.18 253.63 1088.09 274.00 C 1088.20 285.67 1087.90 297.36 1088.62 309.00 C 1088.66 326.00 1088.63 343.01 1088.64 360.00 C 1088.73 361.65 1088.58 363.09 1089.78 364.39 C 1090.12 362.92 1090.42 361.44 1090.68 359.94 C 1090.72 362.60 1091.08 364.99 1092.03 367.48 C 1092.53 372.52 1092.57 377.58 1091.92 382.61 C 1091.39 384.72 1090.77 386.79 1090.49 388.96 C 1090.14 382.30 1090.41 375.66 1090.36 369.00 C 1090.18 367.30 1090.63 365.69 1088.97 364.62 C 1088.32 372.38 1088.85 380.22 1088.65 388.00 C 1088.63 433.90 1088.67 478.95 1088.59 524.90 C 1088.24 526.92 1087.13 527.97 1085.02 527.92 C 1081.37 528.46 1074.87 527.13 1072.34 530.36 C 1069.84 534.32 1071.44 540.66 1071.04 545.20 C 1065.68 545.34 1060.36 544.71 1055.00 544.89 C 1030.00 545.24 1005.00 544.74 980.00 545.10 C 941.35 544.80 902.65 545.26 864.00 545.04 C 833.00 544.73 801.99 545.30 771.00 544.88 C 761.63 544.31 752.35 544.26 742.99 545.12 C 739.56 545.52 739.02 542.90 737.55 540.52 C 735.77 537.27 736.60 533.65 735.52 530.42 C 733.83 527.43 730.92 528.26 728.00 527.87 C 724.72 527.81 721.72 527.21 719.49 524.61 C 718.18 518.41 718.54 511.30 718.72 505.00 C 718.67 472.00 718.67 439.00 718.69 406.00 C 718.73 402.32 718.28 398.67 718.19 395.00 C 718.36 313.30 718.18 231.94 718.35 150.20 Z" fill="#59726f" />
<path d="M 1109.15 155.50 C 1110.01 155.65 1110.87 155.82 1111.73 156.00 L 1111.72 157.35 C 1109.67 159.21 1110.69 162.21 1110.47 164.75 C 1109.99 177.44 1110.56 190.10 1110.56 202.79 C 1109.98 211.10 1109.93 219.15 1111.75 227.34 C 1111.80 229.10 1111.80 230.86 1111.73 232.62 C 1111.08 235.14 1110.71 237.58 1110.53 240.17 C 1109.65 236.20 1109.75 232.23 1109.54 228.20 C 1108.20 225.90 1108.71 223.70 1108.77 221.16 C 1107.87 221.32 1106.97 221.47 1106.08 221.63 C 1105.91 218.51 1106.34 215.45 1106.42 212.35 C 1106.16 210.48 1105.06 208.67 1104.32 206.94 C 1104.88 200.88 1104.09 194.82 1104.35 188.73 C 1103.81 184.09 1104.80 178.79 1102.94 174.49 C 1103.09 171.63 1103.55 168.86 1103.31 165.99 C 1105.51 162.02 1104.89 157.47 1109.15 155.50 Z" fill="#636c55" />
<path d="M 694.06 156.82 C 694.97 163.23 694.47 169.57 694.59 176.00 C 694.71 185.32 694.01 194.68 694.27 204.00 C 694.39 208.15 694.09 212.27 693.91 216.41 C 693.39 213.91 692.61 211.64 690.80 209.77 C 690.42 208.80 690.02 207.84 689.57 206.90 C 689.26 207.84 688.96 208.78 688.67 209.72 C 688.12 209.49 687.58 209.26 687.04 209.03 C 686.71 199.69 686.91 190.35 686.84 181.00 C 686.87 175.04 686.60 169.15 687.21 163.20 C 687.58 161.79 688.01 160.39 688.42 158.99 C 689.06 160.67 689.72 162.35 690.40 164.02 C 691.34 162.57 693.72 162.14 691.60 160.50 C 692.41 159.27 693.25 158.06 694.06 156.82 Z" fill="#606453" />
<path d="M 1111.72 157.35 C 1111.95 160.62 1112.47 163.85 1112.79 167.10 C 1112.96 174.30 1113.91 181.28 1113.02 188.48 C 1112.68 192.61 1111.90 196.85 1112.08 201.00 C 1112.82 209.74 1112.89 218.63 1111.75 227.34 C 1109.93 219.15 1109.98 211.10 1110.56 202.79 C 1110.56 190.10 1109.99 177.44 1110.47 164.75 C 1110.69 162.21 1109.67 159.21 1111.72 157.35 Z" fill="#6f866b" />
<path d="M 1103.31 165.99 C 1103.55 168.86 1103.09 171.63 1102.94 174.49 C 1102.47 185.93 1103.01 197.40 1102.39 208.85 C 1101.02 219.71 1101.73 231.07 1101.63 242.00 C 1101.54 246.38 1102.61 250.62 1102.52 255.00 C 1102.39 260.67 1102.84 266.47 1102.02 272.03 C 1101.72 273.98 1101.73 275.73 1102.05 277.68 C 1101.79 280.12 1101.19 282.46 1100.45 284.79 C 1100.42 264.20 1100.49 243.59 1100.47 223.00 C 1100.42 218.12 1100.73 213.35 1100.06 208.50 C 1100.73 199.05 1100.44 189.48 1100.57 180.00 C 1100.62 175.97 1101.41 172.07 1101.29 168.04 C 1101.97 167.35 1102.64 166.67 1103.31 165.99 Z" fill="#a3997a" />
<path d="M 1095.13 172.36 C 1095.62 172.93 1096.09 173.52 1096.55 174.12 C 1098.00 178.79 1097.81 184.14 1098.19 189.00 C 1098.58 194.09 1098.62 199.17 1098.59 204.27 C 1098.55 205.89 1099.31 207.12 1100.06 208.50 C 1100.73 213.35 1100.42 218.12 1100.47 223.00 C 1100.49 243.59 1100.42 264.20 1100.45 284.79 C 1101.19 282.46 1101.79 280.12 1102.05 277.68 C 1104.62 283.02 1104.02 288.71 1105.89 294.20 C 1106.84 297.08 1106.73 299.85 1106.83 302.84 C 1104.40 306.14 1107.12 308.52 1106.18 312.02 C 1105.40 315.64 1103.67 318.47 1104.78 322.26 C 1105.65 323.39 1107.41 323.85 1108.64 324.50 C 1108.97 325.29 1109.29 326.08 1109.62 326.88 C 1109.75 324.31 1109.92 321.74 1110.12 319.17 C 1110.71 319.43 1111.31 319.68 1111.91 319.94 C 1112.30 346.25 1112.05 372.65 1112.11 399.00 C 1112.26 402.53 1112.56 405.98 1111.95 409.49 C 1110.50 413.27 1110.92 417.03 1110.39 421.26 C 1110.00 426.70 1108.92 432.93 1110.85 438.11 C 1108.91 441.39 1110.14 444.92 1108.19 448.12 C 1108.23 448.93 1108.27 449.74 1108.31 450.55 C 1107.51 453.16 1107.09 455.80 1106.85 458.52 C 1105.37 458.58 1103.89 458.63 1102.41 458.69 C 1103.07 449.84 1102.69 440.88 1102.79 432.00 C 1102.46 415.00 1102.63 398.00 1102.53 381.00 C 1102.50 377.33 1101.95 373.76 1101.51 370.13 C 1101.20 375.12 1100.29 379.98 1100.40 385.00 C 1100.55 398.50 1099.76 411.58 1101.26 425.00 C 1101.25 436.85 1101.90 448.90 1100.80 460.69 C 1098.75 468.36 1101.98 475.18 1100.61 482.90 C 1099.86 487.87 1098.98 492.41 1100.84 497.30 L 1101.33 498.48 C 1101.52 510.00 1100.71 521.48 1100.81 533.00 C 1100.59 534.80 1101.38 537.43 1098.95 537.92 C 1094.36 538.46 1089.62 538.16 1084.99 538.20 C 1082.29 538.37 1080.73 536.83 1078.56 535.59 L 1077.65 535.73 L 1076.90 535.87 C 1076.74 535.34 1076.58 534.81 1076.42 534.28 C 1082.54 534.07 1088.65 533.99 1094.77 533.72 C 1095.52 526.79 1094.49 519.96 1094.80 513.00 C 1095.47 496.36 1094.78 479.63 1095.07 463.00 C 1095.05 425.02 1094.58 386.98 1095.13 349.00 C 1095.11 338.66 1094.89 328.34 1095.01 318.00 C 1095.02 269.46 1094.65 220.90 1095.13 172.36 Z" fill="#676955" />
<path d="M 1102.94 174.49 C 1104.80 178.79 1103.81 184.09 1104.35 188.73 C 1104.09 194.82 1104.88 200.88 1104.32 206.94 C 1105.06 208.67 1106.16 210.48 1106.42 212.35 C 1106.34 215.45 1105.91 218.51 1106.08 221.63 C 1106.97 221.47 1107.87 221.32 1108.77 221.16 C 1108.71 223.70 1108.20 225.90 1109.54 228.20 C 1109.75 232.23 1109.65 236.20 1110.53 240.17 C 1110.71 237.58 1111.08 235.14 1111.73 232.62 C 1112.09 239.09 1111.85 245.53 1111.81 252.00 C 1111.76 257.64 1110.30 262.67 1111.29 268.00 C 1111.71 270.68 1112.72 273.41 1112.62 276.07 C 1112.51 280.73 1111.44 285.31 1111.34 289.99 C 1111.08 299.99 1111.13 309.96 1111.91 319.94 C 1111.31 319.68 1110.71 319.43 1110.12 319.17 C 1109.92 321.74 1109.75 324.31 1109.62 326.88 C 1109.29 326.08 1108.97 325.29 1108.64 324.50 C 1107.41 323.85 1105.65 323.39 1104.78 322.26 C 1103.67 318.47 1105.40 315.64 1106.18 312.02 C 1107.12 308.52 1104.40 306.14 1106.83 302.84 C 1106.73 299.85 1106.84 297.08 1105.89 294.20 C 1104.02 288.71 1104.62 283.02 1102.05 277.68 C 1101.73 275.73 1101.72 273.98 1102.02 272.03 C 1102.84 266.47 1102.39 260.67 1102.52 255.00 C 1102.61 250.62 1101.54 246.38 1101.63 242.00 C 1101.73 231.07 1101.02 219.71 1102.39 208.85 C 1103.01 197.40 1102.47 185.93 1102.94 174.49 Z" fill="#6b6047" />
<path d="M 704.94 179.70 C 705.87 186.36 705.55 193.27 705.57 200.00 C 705.52 238.02 705.64 275.99 705.46 314.00 C 705.86 328.33 705.79 342.67 705.98 357.00 C 706.18 377.67 705.32 398.33 705.54 419.00 C 705.72 424.05 704.66 428.97 704.72 434.00 C 704.79 439.76 704.40 445.42 705.39 451.14 C 706.26 456.28 704.08 460.95 704.71 466.02 C 704.28 466.22 703.85 466.42 703.43 466.62 C 703.35 460.67 704.79 454.93 704.37 448.99 C 703.95 432.79 705.16 416.88 703.86 401.00 C 703.32 390.10 703.61 379.15 703.62 368.24 C 704.48 342.52 703.37 316.73 703.49 291.00 C 703.35 283.31 704.05 275.68 704.27 268.00 C 704.75 248.32 704.32 228.67 704.26 209.00 C 704.12 205.64 703.47 202.36 703.34 199.00 C 703.02 193.16 704.68 187.57 704.03 181.71 C 704.33 181.04 704.64 180.37 704.94 179.70 Z" fill="#ac9f7a" />
<path d="M 704.03 181.71 C 704.68 187.57 703.02 193.16 703.34 199.00 C 703.47 202.36 704.12 205.64 704.26 209.00 C 704.32 228.67 704.75 248.32 704.27 268.00 C 704.05 275.68 703.35 283.31 703.49 291.00 C 703.37 316.73 704.48 342.52 703.62 368.24 C 703.31 365.44 703.01 362.64 702.68 359.85 L 702.40 360.56 L 701.84 362.21 C 700.36 359.41 698.18 356.49 697.59 353.35 C 696.99 349.00 696.67 344.61 696.18 340.24 C 695.82 339.74 695.46 339.23 695.09 338.74 C 694.80 332.15 695.27 325.58 695.01 319.00 C 694.70 311.99 695.50 305.02 695.34 298.00 C 695.65 286.62 692.43 275.70 693.56 263.99 C 694.93 253.89 694.14 243.52 694.45 233.34 C 696.86 229.09 699.15 224.55 700.65 219.91 C 702.13 210.44 701.49 200.52 702.29 190.99 C 702.58 187.86 702.73 184.61 704.03 181.71 Z" fill="#846f4f" />
<path d="M 1113.02 188.48 C 1113.79 190.32 1114.19 191.99 1114.22 194.00 C 1114.41 200.36 1115.14 206.65 1115.04 213.02 C 1114.85 215.68 1117.38 216.72 1117.57 219.24 C 1117.83 221.77 1117.93 224.18 1119.15 226.49 C 1119.55 229.65 1119.56 232.82 1119.50 236.00 C 1119.44 286.67 1119.50 337.33 1119.49 388.00 C 1119.50 392.89 1119.55 397.76 1119.38 402.65 C 1117.39 406.79 1117.80 410.90 1117.65 415.32 C 1117.61 418.41 1116.40 420.96 1115.72 423.91 C 1115.33 425.11 1115.74 425.59 1116.32 426.60 C 1115.25 429.44 1115.68 431.97 1116.14 434.89 C 1116.75 434.33 1117.35 433.76 1117.95 433.20 C 1117.41 438.31 1117.31 443.46 1116.77 448.57 C 1116.19 448.52 1115.60 448.46 1115.02 448.40 C 1114.31 451.47 1113.93 454.57 1113.68 457.71 C 1113.15 458.21 1112.63 458.71 1112.10 459.21 C 1112.17 456.30 1111.93 453.41 1111.83 450.49 C 1112.51 446.28 1112.25 442.12 1112.08 437.89 C 1111.94 428.40 1112.68 418.98 1111.95 409.49 C 1112.56 405.98 1112.26 402.53 1112.11 399.00 C 1112.05 372.65 1112.30 346.25 1111.91 319.94 C 1111.13 309.96 1111.08 299.99 1111.34 289.99 C 1111.44 285.31 1112.51 280.73 1112.62 276.07 C 1112.72 273.41 1111.71 270.68 1111.29 268.00 C 1110.30 262.67 1111.76 257.64 1111.81 252.00 C 1111.85 245.53 1112.09 239.09 1111.73 232.62 C 1111.80 230.86 1111.80 229.10 1111.75 227.34 C 1112.89 218.63 1112.82 209.74 1112.08 201.00 C 1111.90 196.85 1112.68 192.61 1113.02 188.48 Z" fill="#5a5346" />
<path d="M 689.57 206.90 C 690.02 207.84 690.42 208.80 690.80 209.77 C 692.61 211.64 693.39 213.91 693.91 216.41 C 694.48 222.05 694.27 227.66 694.45 233.34 C 694.14 243.52 694.93 253.89 693.56 263.99 C 692.43 275.70 695.65 286.62 695.34 298.00 C 695.50 305.02 694.70 311.99 695.01 319.00 C 695.27 325.58 694.80 332.15 695.09 338.74 C 695.34 344.55 694.09 350.20 694.16 356.00 C 694.11 365.34 694.15 374.66 693.91 384.00 C 694.19 389.67 693.18 395.81 694.92 401.11 C 692.98 402.54 694.46 406.09 694.40 408.23 C 694.43 416.08 693.24 424.44 694.62 432.21 C 695.10 441.56 694.64 450.94 695.02 460.29 C 693.12 460.34 691.23 460.41 689.33 460.46 C 689.01 459.64 688.70 458.82 688.42 457.99 C 688.19 459.76 688.09 461.44 687.22 463.04 C 687.24 447.02 686.87 431.02 687.11 415.00 C 686.80 393.68 686.64 372.32 687.21 351.00 C 687.06 331.01 687.35 311.00 687.09 291.00 C 686.73 284.33 686.90 277.67 686.84 271.00 C 687.32 250.36 687.26 229.68 687.04 209.03 C 687.58 209.26 688.12 209.49 688.67 209.72 C 688.96 208.78 689.26 207.84 689.57 206.90 Z" fill="#655e4d" />
<path d="M 695.09 338.74 C 695.46 339.23 695.82 339.74 696.18 340.24 C 696.67 344.61 696.99 349.00 697.59 353.35 C 698.18 356.49 700.36 359.41 701.84 362.21 C 700.33 368.68 701.06 374.81 700.86 381.64 C 696.79 386.79 699.54 396.42 694.92 401.11 C 693.18 395.81 694.19 389.67 693.91 384.00 C 694.15 374.66 694.11 365.34 694.16 356.00 C 694.09 350.20 695.34 344.55 695.09 338.74 Z" fill="#6d7f61" />
<path d="M 702.40 360.56 L 702.68 359.85 C 703.01 362.64 703.31 365.44 703.62 368.24 C 703.61 379.15 703.32 390.10 703.86 401.00 C 705.16 416.88 703.95 432.79 704.37 448.99 C 704.79 454.93 703.35 460.67 703.43 466.62 C 703.85 466.42 704.28 466.22 704.71 466.02 C 705.12 468.86 705.37 471.66 705.10 474.53 L 703.34 475.50 C 703.09 481.65 702.77 487.79 702.21 493.92 L 700.64 492.42 C 700.23 489.67 699.59 487.42 698.24 484.97 C 695.44 483.62 691.96 486.85 689.30 487.80 C 688.79 486.95 688.31 486.08 687.86 485.19 C 687.77 481.67 687.60 477.87 688.49 474.43 C 690.04 472.50 692.41 471.07 694.44 469.67 C 695.34 468.92 697.01 468.24 697.19 467.01 C 697.79 462.06 696.74 457.00 697.18 452.00 C 697.76 444.98 697.61 437.95 698.00 430.91 C 698.75 431.71 699.50 432.51 700.26 433.30 C 703.14 430.70 701.72 427.62 701.60 424.23 C 701.08 420.41 702.34 416.82 701.87 413.01 C 701.29 408.43 700.56 403.86 699.61 399.35 C 698.33 393.56 701.17 387.81 700.86 381.64 C 701.06 374.81 700.33 368.68 701.84 362.21 L 702.40 360.56 Z" fill="#7c6c4f" />
<path d="M 1101.51 370.13 C 1101.95 373.76 1102.50 377.33 1102.53 381.00 C 1102.63 398.00 1102.46 415.00 1102.79 432.00 C 1102.69 440.88 1103.07 449.84 1102.41 458.69 C 1102.05 460.71 1101.70 462.74 1101.40 464.77 C 1101.20 463.41 1100.99 462.05 1100.80 460.69 C 1101.90 448.90 1101.25 436.85 1101.26 425.00 C 1099.76 411.58 1100.55 398.50 1100.40 385.00 C 1100.29 379.98 1101.20 375.12 1101.51 370.13 Z" fill="#948d6f" />
<path d="M 700.86 381.64 C 701.17 387.81 698.33 393.56 699.61 399.35 C 700.56 403.86 701.29 408.43 701.87 413.01 C 702.34 416.82 701.08 420.41 701.60 424.23 C 701.72 427.62 703.14 430.70 700.26 433.30 C 699.50 432.51 698.75 431.71 698.00 430.91 C 697.98 428.63 697.94 426.30 697.59 424.04 C 697.49 422.47 696.46 422.40 695.27 421.79 C 694.99 425.25 694.71 428.74 694.62 432.21 C 693.24 424.44 694.43 416.08 694.40 408.23 C 694.46 406.09 692.98 402.54 694.92 401.11 C 699.54 396.42 696.79 386.79 700.86 381.64 Z" fill="#6c6f59" />
<path d="M 1119.38 402.65 C 1120.32 421.73 1119.46 440.92 1119.74 460.01 C 1119.37 464.43 1125.44 466.98 1125.20 470.98 C 1125.38 480.32 1125.46 489.66 1125.43 499.00 C 1125.37 503.89 1125.73 508.47 1125.10 513.32 C 1122.85 512.15 1120.62 510.97 1118.30 509.94 L 1117.73 509.67 L 1119.66 508.53 C 1120.56 498.21 1120.35 487.43 1120.53 477.12 C 1120.47 474.12 1122.28 472.78 1124.19 470.87 C 1122.74 471.30 1121.29 471.70 1119.82 472.08 C 1116.90 469.98 1114.10 467.73 1111.19 465.63 C 1111.49 463.49 1111.85 461.36 1112.10 459.21 C 1112.63 458.71 1113.15 458.21 1113.68 457.71 C 1113.93 454.57 1114.31 451.47 1115.02 448.40 C 1115.60 448.46 1116.19 448.52 1116.77 448.57 C 1117.31 443.46 1117.41 438.31 1117.95 433.20 C 1117.35 433.76 1116.75 434.33 1116.14 434.89 C 1115.68 431.97 1115.25 429.44 1116.32 426.60 C 1115.74 425.59 1115.33 425.11 1115.72 423.91 C 1116.40 420.96 1117.61 418.41 1117.65 415.32 C 1117.80 410.90 1117.39 406.79 1119.38 402.65 Z" fill="#635c4d" />
<path d="M 1111.95 409.49 C 1112.68 418.98 1111.94 428.40 1112.08 437.89 L 1110.85 438.11 C 1108.92 432.93 1110.00 426.70 1110.39 421.26 C 1110.92 417.03 1110.50 413.27 1111.95 409.49 Z" fill="#7c765d" />
<path d="M 695.27 421.79 C 696.46 422.40 697.49 422.47 697.59 424.04 C 697.94 426.30 697.98 428.63 698.00 430.91 C 697.61 437.95 697.76 444.98 697.18 452.00 C 696.74 457.00 697.79 462.06 697.19 467.01 C 697.01 468.24 695.34 468.92 694.44 469.67 C 693.70 469.43 692.96 469.20 692.22 468.97 C 693.24 468.19 694.91 467.50 695.38 466.27 C 695.67 464.33 695.14 462.24 695.02 460.29 C 694.64 450.94 695.10 441.56 694.62 432.21 C 694.71 428.74 694.99 425.25 695.27 421.79 Z" fill="#86815f" />
<path d="M 1110.85 438.11 L 1112.08 437.89 C 1112.25 442.12 1112.51 446.28 1111.83 450.49 C 1109.33 454.62 1109.61 460.32 1108.98 465.02 C 1110.20 469.27 1117.13 471.07 1118.44 475.45 C 1118.79 478.22 1117.97 481.22 1117.78 484.00 C 1117.34 487.30 1118.11 490.04 1116.42 492.99 C 1116.40 494.82 1116.43 496.64 1116.43 498.47 C 1115.39 499.04 1114.52 499.61 1113.75 500.52 C 1115.10 500.56 1116.45 500.51 1117.80 500.47 C 1117.74 503.49 1117.21 506.69 1117.73 509.67 L 1118.30 509.94 C 1117.10 510.53 1115.91 511.17 1114.74 511.82 L 1112.94 511.06 C 1111.25 511.85 1109.66 512.82 1108.08 513.80 C 1108.67 512.71 1110.11 511.37 1109.91 510.09 C 1108.66 510.12 1107.42 510.22 1106.18 510.32 C 1105.82 510.03 1105.46 509.73 1105.09 509.43 C 1107.87 508.69 1110.64 508.78 1113.45 508.52 C 1115.84 507.81 1114.47 506.18 1114.31 504.44 C 1114.88 504.52 1115.45 504.60 1116.02 504.67 C 1116.03 504.01 1116.04 503.34 1116.05 502.67 C 1114.43 502.40 1113.23 502.17 1112.28 500.67 C 1112.30 498.38 1114.10 496.05 1115.03 493.99 C 1113.48 494.91 1111.95 495.86 1110.46 496.87 C 1110.65 495.98 1110.83 495.08 1111.01 494.19 C 1109.50 494.56 1108.00 494.98 1106.48 495.27 C 1105.80 495.01 1105.12 494.76 1104.44 494.53 C 1103.16 495.35 1101.99 496.31 1100.84 497.30 C 1098.98 492.41 1099.86 487.87 1100.61 482.90 C 1101.98 475.18 1098.75 468.36 1100.80 460.69 C 1100.99 462.05 1101.20 463.41 1101.40 464.77 C 1101.70 462.74 1102.05 460.71 1102.41 458.69 C 1103.89 458.63 1105.37 458.58 1106.85 458.52 C 1107.09 455.80 1107.51 453.16 1108.31 450.55 C 1108.27 449.74 1108.23 448.93 1108.19 448.12 C 1110.14 444.92 1108.91 441.39 1110.85 438.11 Z" fill="#796c50" />
<path d="M 1111.83 450.49 C 1111.93 453.41 1112.17 456.30 1112.10 459.21 C 1111.85 461.36 1111.49 463.49 1111.19 465.63 C 1114.10 467.73 1116.90 469.98 1119.82 472.08 C 1121.29 471.70 1122.74 471.30 1124.19 470.87 C 1122.28 472.78 1120.47 474.12 1120.53 477.12 C 1120.35 487.43 1120.56 498.21 1119.66 508.53 L 1117.73 509.67 C 1117.21 506.69 1117.74 503.49 1117.80 500.47 C 1116.45 500.51 1115.10 500.56 1113.75 500.52 C 1114.52 499.61 1115.39 499.04 1116.43 498.47 C 1116.43 496.64 1116.40 494.82 1116.42 492.99 C 1118.11 490.04 1117.34 487.30 1117.78 484.00 C 1117.97 481.22 1118.79 478.22 1118.44 475.45 C 1117.13 471.07 1110.20 469.27 1108.98 465.02 C 1109.61 460.32 1109.33 454.62 1111.83 450.49 Z" fill="#8e7e5e" />
<path d="M 688.42 457.99 C 688.70 458.82 689.01 459.64 689.33 460.46 C 691.23 460.41 693.12 460.34 695.02 460.29 C 695.14 462.24 695.67 464.33 695.38 466.27 C 694.91 467.50 693.24 468.19 692.22 468.97 C 689.90 470.37 687.93 472.16 685.93 473.98 C 684.26 473.04 682.63 472.03 681.03 470.97 C 681.91 467.69 684.94 465.40 687.22 463.04 C 688.09 461.44 688.19 459.76 688.42 457.99 Z" fill="#6d6750" />
<path d="M 692.22 468.97 C 692.96 469.20 693.70 469.43 694.44 469.67 C 692.41 471.07 690.04 472.50 688.49 474.43 C 687.60 477.87 687.77 481.67 687.86 485.19 C 686.50 482.03 686.96 478.32 686.10 474.95 L 685.93 473.98 C 687.93 472.16 689.90 470.37 692.22 468.97 Z" fill="#988c6e" />
<path d="M 681.03 470.97 C 682.63 472.03 684.26 473.04 685.93 473.98 L 686.10 474.95 C 686.62 481.31 685.73 487.62 686.17 494.00 C 686.62 499.61 685.88 505.18 686.17 510.80 C 690.37 511.65 692.82 512.61 695.61 515.98 C 694.73 517.13 693.87 518.30 693.02 519.48 C 694.10 519.48 695.17 519.48 696.24 519.44 C 695.34 519.91 694.44 520.38 693.53 520.86 C 691.71 520.43 690.07 520.15 688.21 520.60 C 686.08 518.47 683.95 516.33 681.97 514.06 C 681.18 513.32 680.85 512.31 680.97 511.02 C 681.15 500.68 680.54 490.36 681.06 480.00 C 681.23 476.99 681.16 473.98 681.03 470.97 Z" fill="#675d4d" />
<path d="M 686.10 474.95 C 686.96 478.32 686.50 482.03 687.86 485.19 C 688.31 486.08 688.79 486.95 689.30 487.80 C 691.96 486.85 695.44 483.62 698.24 484.97 C 699.59 487.42 700.23 489.67 700.64 492.42 L 702.21 493.92 C 702.26 501.72 702.28 509.61 701.39 517.35 C 699.67 518.05 697.95 518.74 696.24 519.44 C 695.17 519.48 694.10 519.48 693.02 519.48 C 693.87 518.30 694.73 517.13 695.61 515.98 C 692.82 512.61 690.37 511.65 686.17 510.80 C 685.88 505.18 686.62 499.61 686.17 494.00 C 685.73 487.62 686.62 481.31 686.10 474.95 Z" fill="#717158" />
<path d="M 703.34 475.50 L 705.10 474.53 C 705.19 489.90 705.28 505.31 705.62 520.69 C 705.34 522.03 705.01 523.36 704.69 524.70 C 703.79 522.76 702.61 520.54 700.22 520.37 C 698.52 520.82 695.88 521.83 695.93 523.98 C 694.87 537.34 697.20 550.56 695.76 563.95 C 696.59 565.00 697.42 566.05 698.25 567.11 C 695.47 569.23 692.91 571.41 689.50 572.46 C 690.85 570.53 692.43 568.79 693.83 566.89 C 694.41 562.68 693.54 558.26 693.71 554.00 C 693.99 544.98 694.00 536.03 693.21 527.02 C 693.00 524.94 693.20 522.91 693.53 520.86 C 694.44 520.38 695.34 519.91 696.24 519.44 C 697.95 518.74 699.67 518.05 701.39 517.35 C 702.28 509.61 702.26 501.72 702.21 493.92 C 702.77 487.79 703.09 481.65 703.34 475.50 Z" fill="#8b7d5c" />
<path d="M 1104.44 494.53 C 1105.12 494.76 1105.80 495.01 1106.48 495.27 C 1108.00 494.98 1109.50 494.56 1111.01 494.19 C 1110.83 495.08 1110.65 495.98 1110.46 496.87 C 1111.95 495.86 1113.48 494.91 1115.03 493.99 C 1114.10 496.05 1112.30 498.38 1112.28 500.67 C 1113.23 502.17 1114.43 502.40 1116.05 502.67 C 1116.04 503.34 1116.03 504.01 1116.02 504.67 C 1115.45 504.60 1114.88 504.52 1114.31 504.44 C 1114.47 506.18 1115.84 507.81 1113.45 508.52 C 1110.64 508.78 1107.87 508.69 1105.09 509.43 C 1105.46 509.73 1105.82 510.03 1106.18 510.32 C 1107.42 510.22 1108.66 510.12 1109.91 510.09 C 1110.11 511.37 1108.67 512.71 1108.08 513.80 C 1109.66 512.82 1111.25 511.85 1112.94 511.06 L 1114.74 511.82 C 1113.72 512.78 1112.72 513.76 1111.67 514.69 C 1109.99 515.68 1108.27 516.52 1106.54 517.39 C 1105.44 516.68 1104.25 516.52 1104.15 514.99 C 1103.53 509.86 1103.54 504.81 1102.28 499.72 L 1101.33 498.48 L 1100.84 497.30 C 1101.99 496.31 1103.16 495.35 1104.44 494.53 Z" fill="#897651" />
<path d="M 1101.33 498.48 L 1102.28 499.72 C 1103.54 504.81 1103.53 509.86 1104.15 514.99 C 1104.25 516.52 1105.44 516.68 1106.54 517.39 C 1108.59 518.44 1110.54 519.47 1112.22 521.08 C 1112.76 523.29 1112.49 525.75 1112.43 528.00 C 1112.03 535.34 1111.78 542.65 1112.04 550.00 C 1112.24 555.59 1111.78 561.28 1112.35 566.85 C 1113.77 568.90 1115.82 570.52 1117.44 572.43 C 1115.08 571.64 1113.11 570.30 1111.06 568.95 C 1108.72 567.27 1105.72 567.63 1103.00 567.54 C 1092.64 567.74 1082.36 566.62 1072.00 566.76 C 1065.63 566.86 1058.84 566.22 1052.58 567.49 C 1050.67 567.85 1049.92 569.31 1048.72 570.65 C 1047.86 571.45 1046.98 572.19 1046.05 572.91 L 1044.67 572.25 C 1046.36 570.60 1048.12 569.02 1049.44 567.03 C 1048.76 564.46 1045.72 561.59 1043.22 560.61 C 1042.81 559.68 1042.40 558.76 1041.99 557.83 C 1032.76 557.46 1023.49 557.48 1014.26 557.58 C 1018.48 556.91 1022.52 556.22 1026.80 556.77 C 1033.35 557.60 1040.03 557.47 1046.61 557.33 C 1045.44 557.81 1044.27 558.29 1043.10 558.76 C 1046.15 561.27 1049.25 563.69 1052.07 566.46 C 1053.62 566.30 1055.18 566.14 1056.73 565.96 C 1073.82 566.69 1090.85 565.75 1107.93 565.73 C 1110.39 565.62 1110.31 561.75 1110.39 560.00 C 1110.23 551.77 1110.73 543.46 1110.01 535.27 C 1110.00 531.23 1110.61 527.00 1110.06 523.01 C 1109.13 520.81 1106.64 519.17 1104.85 517.68 C 1103.61 523.76 1102.96 530.10 1103.11 536.31 C 1098.54 542.54 1088.14 537.30 1082.98 541.05 C 1084.81 541.70 1086.66 542.10 1088.57 542.40 C 1087.82 542.92 1087.08 543.45 1086.34 543.97 C 1087.08 544.53 1087.82 545.10 1088.56 545.66 C 1087.60 546.03 1086.63 546.40 1085.66 546.78 C 1086.09 545.19 1086.67 542.38 1083.99 544.01 C 1083.12 547.83 1083.84 553.41 1081.88 556.81 C 1076.37 558.53 1069.68 556.67 1063.81 557.74 C 1062.88 557.39 1061.98 556.99 1061.08 556.57 C 1067.06 556.27 1073.04 556.59 1079.02 556.40 C 1081.21 556.51 1081.73 554.74 1082.15 553.00 C 1082.61 549.70 1082.52 546.31 1082.43 542.99 C 1082.77 540.03 1079.49 537.66 1077.65 535.73 L 1078.56 535.59 C 1080.73 536.83 1082.29 538.37 1084.99 538.20 C 1089.62 538.16 1094.36 538.46 1098.95 537.92 C 1101.38 537.43 1100.59 534.80 1100.81 533.00 C 1100.71 521.48 1101.52 510.00 1101.33 498.48 Z" fill="#a8966d" />
<path d="M 1118.30 509.94 C 1120.62 510.97 1122.85 512.15 1125.10 513.32 C 1123.32 515.47 1121.24 517.28 1119.21 519.18 L 1118.78 518.52 C 1117.59 519.03 1116.38 520.02 1115.08 520.06 C 1113.72 518.48 1112.68 516.51 1111.67 514.69 C 1112.72 513.76 1113.72 512.78 1114.74 511.82 C 1115.91 511.17 1117.10 510.53 1118.30 509.94 Z" fill="#5b4f46" />
<path d="M 1111.67 514.69 C 1112.68 516.51 1113.72 518.48 1115.08 520.06 C 1116.38 520.02 1117.59 519.03 1118.78 518.52 L 1119.21 519.18 C 1118.79 521.10 1118.47 523.02 1118.51 525.00 C 1118.74 540.27 1118.28 555.64 1118.95 570.89 C 1118.45 571.41 1117.95 571.92 1117.44 572.43 C 1115.82 570.52 1113.77 568.90 1112.35 566.85 C 1111.78 561.28 1112.24 555.59 1112.04 550.00 C 1111.78 542.65 1112.03 535.34 1112.43 528.00 C 1112.49 525.75 1112.76 523.29 1112.22 521.08 C 1110.54 519.47 1108.59 518.44 1106.54 517.39 C 1108.27 516.52 1109.99 515.68 1111.67 514.69 Z" fill="#6d6652" />
<path d="M 1702.96 515.64 C 1704.69 518.57 1705.39 521.84 1707.22 524.75 C 1709.69 528.73 1713.25 532.30 1717.21 534.81 C 1720.30 536.75 1723.62 537.62 1726.82 539.24 C 1726.11 541.09 1722.90 541.43 1721.28 542.36 C 1713.69 545.51 1707.56 552.04 1704.76 559.76 C 1704.07 561.07 1703.78 563.37 1702.23 563.84 C 1700.61 560.61 1699.79 557.29 1697.81 554.21 C 1695.11 550.01 1691.41 546.37 1687.07 543.89 C 1684.33 542.34 1681.33 541.57 1678.59 539.96 C 1679.12 538.50 1681.26 538.09 1682.53 537.46 C 1689.30 535.04 1695.14 529.86 1698.64 523.63 C 1700.20 521.51 1700.59 516.61 1702.96 515.64 Z" fill="#dce3da" />
<path d="M 1104.85 517.68 C 1106.64 519.17 1109.13 520.81 1110.06 523.01 C 1110.61 527.00 1110.00 531.23 1110.01 535.27 C 1109.59 534.31 1109.17 533.36 1108.73 532.41 C 1107.58 533.24 1106.47 534.11 1105.37 535.01 C 1105.11 533.66 1104.87 532.30 1104.65 530.94 C 1104.27 532.77 1103.78 534.57 1103.11 536.31 C 1102.96 530.10 1103.61 523.76 1104.85 517.68 Z" fill="#867651" />
<path d="M 693.53 520.86 C 693.20 522.91 693.00 524.94 693.21 527.02 C 694.00 536.03 693.99 544.98 693.71 554.00 C 693.54 558.26 694.41 562.68 693.83 566.89 C 692.43 568.79 690.85 570.53 689.50 572.46 C 687.68 569.89 688.61 566.05 688.45 563.00 C 688.35 548.88 688.85 534.70 688.21 520.60 C 690.07 520.15 691.71 520.43 693.53 520.86 Z" fill="#756f56" />
<path d="M 700.22 520.37 C 702.61 520.54 703.79 522.76 704.69 524.70 C 705.01 523.36 705.34 522.03 705.62 520.69 C 706.04 526.11 705.89 531.54 706.18 536.97 C 710.69 538.75 716.16 538.04 721.01 538.02 C 723.88 538.09 725.85 536.31 728.25 534.98 C 727.02 536.81 725.62 538.51 724.38 540.32 C 723.60 543.04 723.92 546.18 723.74 549.00 C 723.80 550.83 723.43 553.08 724.22 554.77 C 728.39 556.34 733.59 555.27 738.00 555.57 C 748.12 555.98 758.23 555.59 768.34 555.85 C 769.97 557.17 770.92 557.46 773.00 557.42 C 778.39 557.40 783.74 557.18 789.12 557.78 C 782.07 557.97 774.98 557.52 767.98 558.15 C 764.18 557.95 761.71 561.66 758.70 563.73 C 756.74 565.09 756.34 566.32 755.75 568.56 C 747.12 568.38 738.63 566.99 730.00 567.04 C 719.42 566.61 708.80 567.92 698.25 567.11 C 697.42 566.05 696.59 565.00 695.76 563.95 C 697.20 550.56 694.87 537.34 695.93 523.98 C 695.88 521.83 698.52 520.82 700.22 520.37 Z" fill="#817451" />
<path d="M 1104.65 530.94 C 1104.87 532.30 1105.11 533.66 1105.37 535.01 C 1106.47 534.11 1107.58 533.24 1108.73 532.41 C 1109.17 533.36 1109.59 534.31 1110.01 535.27 C 1110.73 543.46 1110.23 551.77 1110.39 560.00 C 1110.31 561.75 1110.39 565.62 1107.93 565.73 C 1090.85 565.75 1073.82 566.69 1056.73 565.96 C 1059.40 565.29 1061.89 564.96 1064.65 564.93 C 1064.52 564.28 1064.39 563.63 1064.26 562.98 C 1064.79 562.40 1065.32 561.82 1065.84 561.24 C 1064.98 561.03 1064.13 560.82 1063.27 560.61 C 1063.44 559.65 1063.62 558.70 1063.81 557.74 C 1069.68 556.67 1076.37 558.53 1081.88 556.81 C 1083.84 553.41 1083.12 547.83 1083.99 544.01 C 1086.67 542.38 1086.09 545.19 1085.66 546.78 C 1086.63 546.40 1087.60 546.03 1088.56 545.66 C 1087.82 545.10 1087.08 544.53 1086.34 543.97 C 1087.08 543.45 1087.82 542.92 1088.57 542.40 C 1086.66 542.10 1084.81 541.70 1082.98 541.05 C 1088.14 537.30 1098.54 542.54 1103.11 536.31 C 1103.78 534.57 1104.27 532.77 1104.65 530.94 Z" fill="#7a6c4f" />
<path d="M 1076.90 535.87 L 1077.65 535.73 C 1079.49 537.66 1082.77 540.03 1082.43 542.99 C 1082.52 546.31 1082.61 549.70 1082.15 553.00 C 1081.73 554.74 1081.21 556.51 1079.02 556.40 C 1073.04 556.59 1067.06 556.27 1061.08 556.57 C 1061.98 556.99 1062.88 557.39 1063.81 557.74 C 1063.62 558.70 1063.44 559.65 1063.27 560.61 C 1064.13 560.82 1064.98 561.03 1065.84 561.24 C 1065.32 561.82 1064.79 562.40 1064.26 562.98 C 1064.39 563.63 1064.52 564.28 1064.65 564.93 C 1061.89 564.96 1059.40 565.29 1056.73 565.96 C 1055.18 566.14 1053.62 566.30 1052.07 566.46 C 1049.25 563.69 1046.15 561.27 1043.10 558.76 C 1044.27 558.29 1045.44 557.81 1046.61 557.33 C 1040.03 557.47 1033.35 557.60 1026.80 556.77 C 1022.52 556.22 1018.48 556.91 1014.26 557.58 C 1023.49 557.48 1032.76 557.46 1041.99 557.83 C 1042.40 558.76 1042.81 559.68 1043.22 560.61 C 1041.79 561.74 1040.38 562.90 1038.97 564.05 C 1039.34 564.95 1039.72 565.84 1040.11 566.72 C 1038.47 565.59 1037.04 564.98 1035.01 564.89 C 1029.36 564.50 1023.66 564.68 1018.00 564.66 C 994.71 565.07 971.30 564.83 948.00 565.02 C 943.64 565.26 939.37 565.45 935.00 565.13 C 916.01 564.84 896.98 565.22 878.00 564.82 C 871.74 564.96 865.50 564.68 859.33 563.53 C 856.23 562.73 853.15 562.83 849.98 562.77 C 846.42 562.82 843.69 559.61 840.01 559.17 C 835.70 558.67 831.32 558.32 827.00 558.00 C 820.80 558.02 814.60 558.71 808.40 558.91 L 808.90 557.41 C 811.89 556.56 814.78 556.66 817.85 556.54 C 808.78 556.38 799.82 556.29 790.77 555.56 C 793.14 555.37 795.50 555.10 797.86 554.89 L 797.87 554.05 C 792.99 553.76 788.12 553.28 783.25 552.81 L 783.27 552.38 C 784.97 551.93 786.66 551.47 788.36 551.08 C 794.53 550.44 800.79 550.82 807.00 550.60 C 826.00 550.53 845.00 550.58 864.00 550.58 C 888.16 550.91 912.32 550.49 936.48 550.80 C 936.85 552.39 937.69 553.09 938.99 552.90 C 947.36 553.09 955.77 553.78 964.11 554.55 L 965.18 555.43 C 954.11 555.36 943.07 555.20 932.00 555.56 C 925.87 555.06 920.11 557.03 914.00 556.54 C 890.90 556.41 867.77 556.80 844.68 556.49 C 847.44 556.94 850.18 557.41 853.00 557.38 C 865.33 557.32 877.67 557.49 890.00 557.38 C 892.54 557.35 895.04 557.77 897.56 557.87 C 900.72 557.72 903.83 557.33 907.00 557.55 C 912.00 557.81 916.85 557.29 921.82 558.09 C 925.23 558.81 928.35 556.63 931.99 556.52 C 937.65 556.37 943.38 556.33 949.02 557.01 C 956.56 557.94 964.38 556.93 972.00 557.89 C 976.42 558.59 980.70 557.23 985.17 557.74 C 990.83 558.34 996.61 558.20 1002.27 557.69 C 1001.22 556.84 1000.50 555.87 999.02 555.88 C 994.68 555.59 990.32 555.88 985.97 555.52 C 987.11 554.82 988.37 553.62 989.74 553.58 C 995.84 553.49 1002.35 553.84 1008.30 552.48 C 1006.46 551.96 1004.62 551.47 1002.75 551.11 C 1006.83 550.83 1010.90 550.58 1015.00 550.72 C 1035.28 551.02 1055.57 550.30 1075.86 550.58 C 1076.30 545.67 1075.65 540.55 1076.90 535.87 Z" fill="#6b624c" />
<path d="M 707.36 548.67 C 708.02 551.34 708.11 554.15 708.77 556.83 C 707.91 556.82 707.05 556.80 706.19 556.79 C 706.10 554.35 706.37 551.65 705.68 549.31 C 704.05 547.52 702.08 546.03 700.33 544.36 C 703.06 544.12 705.84 546.64 707.36 548.67 Z" fill="#8d8162" />
<path d="M 1106.66 544.15 C 1107.19 550.32 1107.62 556.68 1106.89 562.84 C 1100.33 563.04 1093.59 563.52 1087.07 562.92 C 1086.81 561.30 1088.53 559.62 1089.55 558.53 C 1092.10 555.46 1097.46 557.14 1100.89 557.47 C 1100.93 554.67 1100.83 551.83 1101.11 549.04 C 1101.73 546.78 1104.76 545.24 1106.66 544.15 Z" fill="#675b4d" />
<path d="M 700.33 544.36 C 702.08 546.03 704.05 547.52 705.68 549.31 C 706.37 551.65 706.10 554.35 706.19 556.79 C 707.05 556.80 707.91 556.82 708.77 556.83 C 710.75 556.91 712.83 556.89 714.77 557.34 C 717.50 558.29 719.06 560.41 720.20 562.96 C 713.11 563.45 705.88 563.61 698.80 563.02 C 698.94 558.34 699.33 553.69 699.23 549.00 C 699.35 547.23 698.89 545.67 700.33 544.36 Z" fill="#655849" />
<path d="M 936.48 550.80 C 956.65 550.60 976.83 550.74 997.00 550.74 C 998.92 550.79 1000.83 550.95 1002.75 551.11 C 1004.62 551.47 1006.46 551.96 1008.30 552.48 C 1002.35 553.84 995.84 553.49 989.74 553.58 C 988.37 553.62 987.11 554.82 985.97 555.52 C 990.32 555.88 994.68 555.59 999.02 555.88 C 1000.50 555.87 1001.22 556.84 1002.27 557.69 C 996.61 558.20 990.83 558.34 985.17 557.74 C 978.33 557.19 971.81 557.78 965.18 555.43 L 964.11 554.55 C 955.77 553.78 947.36 553.09 938.99 552.90 C 937.69 553.09 936.85 552.39 936.48 550.80 Z" fill="#707556" />
<path d="M 932.00 555.56 C 943.07 555.20 954.11 555.36 965.18 555.43 C 971.81 557.78 978.33 557.19 985.17 557.74 C 980.70 557.23 976.42 558.59 972.00 557.89 C 964.38 556.93 956.56 557.94 949.02 557.01 C 943.38 556.33 937.65 556.37 931.99 556.52 C 928.35 556.63 925.23 558.81 921.82 558.09 C 916.85 557.29 912.00 557.81 907.00 557.55 C 903.83 557.33 900.72 557.72 897.56 557.87 C 895.04 557.77 892.54 557.35 890.00 557.38 C 877.67 557.49 865.33 557.32 853.00 557.38 C 850.18 557.41 847.44 556.94 844.68 556.49 C 867.77 556.80 890.90 556.41 914.00 556.54 C 920.11 557.03 925.87 555.06 932.00 555.56 Z" fill="#b0a882" />
<path d="M 768.34 555.85 C 775.82 555.31 783.28 555.60 790.77 555.56 C 799.82 556.29 808.78 556.38 817.85 556.54 C 814.78 556.66 811.89 556.56 808.90 557.41 C 802.36 558.09 795.67 558.34 789.12 557.78 C 783.74 557.18 778.39 557.40 773.00 557.42 C 770.92 557.46 769.97 557.17 768.34 555.85 Z" fill="#8f8668" />
<path d="M 767.98 558.15 C 774.98 557.52 782.07 557.97 789.12 557.78 C 795.67 558.34 802.36 558.09 808.90 557.41 L 808.40 558.91 C 807.61 560.53 805.37 560.93 807.48 562.53 C 806.95 563.05 806.41 563.57 805.88 564.09 C 798.00 563.95 790.17 564.83 782.29 564.61 C 777.91 564.78 773.44 564.72 769.10 565.35 C 766.55 566.46 764.49 569.21 763.92 571.94 C 763.18 572.83 762.42 573.71 761.66 574.58 C 739.16 574.42 716.52 574.69 693.97 574.48 C 692.39 574.42 690.84 573.22 689.50 572.46 C 692.91 571.41 695.47 569.23 698.25 567.11 C 708.80 567.92 719.42 566.61 730.00 567.04 C 738.63 566.99 747.12 568.38 755.75 568.56 C 756.34 566.32 756.74 565.09 758.70 563.73 C 761.71 561.66 764.18 557.95 767.98 558.15 Z" fill="#61594c" />
<path d="M 827.00 558.00 C 831.32 558.32 835.70 558.67 840.01 559.17 C 843.69 559.61 846.42 562.82 849.98 562.77 C 853.15 562.83 856.23 562.73 859.33 563.53 C 855.79 563.68 852.27 564.01 848.76 564.48 C 841.34 565.58 833.61 564.71 826.00 564.88 C 819.26 565.04 812.59 564.59 805.88 564.09 C 806.41 563.57 806.95 563.05 807.48 562.53 C 805.37 560.93 807.61 560.53 808.40 558.91 C 814.60 558.71 820.80 558.02 827.00 558.00 Z" fill="#5d6655" />
<path d="M 1043.22 560.61 C 1045.72 561.59 1048.76 564.46 1049.44 567.03 C 1048.12 569.02 1046.36 570.60 1044.67 572.25 C 1042.97 570.55 1041.50 568.67 1040.11 566.72 C 1039.72 565.84 1039.34 564.95 1038.97 564.05 C 1040.38 562.90 1041.79 561.74 1043.22 560.61 Z" fill="#817254" />
<path d="M 782.29 564.61 C 790.17 564.83 798.00 563.95 805.88 564.09 C 812.59 564.59 819.26 565.04 826.00 564.88 C 833.61 564.71 841.34 565.58 848.76 564.48 C 852.27 564.01 855.79 563.68 859.33 563.53 C 865.50 564.68 871.74 564.96 878.00 564.82 C 896.98 565.22 916.01 564.84 935.00 565.13 C 939.37 565.45 943.64 565.26 948.00 565.02 C 971.30 564.83 994.71 565.07 1018.00 564.66 C 1023.66 564.68 1029.36 564.50 1035.01 564.89 C 1037.04 564.98 1038.47 565.59 1040.11 566.72 C 1041.50 568.67 1042.97 570.55 1044.67 572.25 L 1046.05 572.91 C 1046.98 572.19 1047.86 571.45 1048.72 570.65 C 1048.51 571.87 1048.31 573.08 1048.11 574.31 C 1045.84 574.17 1043.99 573.11 1041.89 572.41 C 1039.34 571.90 1036.60 572.18 1034.00 572.12 C 1003.00 571.76 972.00 571.99 941.00 571.88 C 891.00 571.93 841.00 571.86 791.00 571.85 C 781.97 572.07 772.95 572.22 763.92 571.94 C 764.49 569.21 766.55 566.46 769.10 565.35 C 773.44 564.72 777.91 564.78 782.29 564.61 Z" fill="#524e43" />
<path d="M 1072.00 566.76 C 1082.36 566.62 1092.64 567.74 1103.00 567.54 C 1105.72 567.63 1108.72 567.27 1111.06 568.95 C 1113.11 570.30 1115.08 571.64 1117.44 572.43 C 1116.02 573.65 1115.05 574.66 1113.01 574.50 C 1091.39 574.33 1069.74 574.66 1048.11 574.31 C 1048.31 573.08 1048.51 571.87 1048.72 570.65 C 1049.92 569.31 1050.67 567.85 1052.58 567.49 C 1058.84 566.22 1065.63 566.86 1072.00 566.76 Z" fill="#5f544a" />
</svg>