<svg xmlns="http://www.w3.org/2000/svg" viewBox="0 0 1200 630" width="1200" height="630">
  <defs>
    <!-- Background: warm dark radial, brighter near sigil zone -->
    <radialGradient id="og-bg" cx="300" cy="315" r="680" gradientUnits="userSpaceOnUse">
      <stop offset="0%"   stop-color="#1e1508"/>
      <stop offset="100%" stop-color="#0d0904"/>
    </radialGradient>

    <!-- Bronze ring gradient (matches sigil) -->
    <linearGradient id="sigil-bronze-v" x1="0" y1="0" x2="0" y2="1">
      <stop offset="0%"   stop-color="#c89824"/>
      <stop offset="50%"  stop-color="#a07018"/>
      <stop offset="100%" stop-color="#c89824"/>
    </linearGradient>

    <!-- Content area gradient (matches sigil) -->
    <linearGradient id="sigil-content-bg" x1="0" y1="0" x2="0.2" y2="1">
      <stop offset="0%"   stop-color="#0e2232"/>
      <stop offset="35%"  stop-color="#0b1c24"/>
      <stop offset="100%" stop-color="#08171e"/>
    </linearGradient>

    <!-- Bronze divider: fade in/out vertically -->
    <linearGradient id="og-divider" x1="0" y1="70" x2="0" y2="560" gradientUnits="userSpaceOnUse">
      <stop offset="0%"   stop-color="#c89824" stop-opacity="0"/>
      <stop offset="18%"  stop-color="#c89824" stop-opacity="0.55"/>
      <stop offset="80%"  stop-color="#a07018" stop-opacity="0.55"/>
      <stop offset="100%" stop-color="#c89824" stop-opacity="0"/>
    </linearGradient>

    <!-- Subtle warm dot grid -->
    <pattern id="og-grid" width="28" height="28" patternUnits="userSpaceOnUse">
      <circle cx="1" cy="1" r="0.5" fill="rgba(200,152,36,0.04)"/>
    </pattern>

    <!-- Gold ambient glow for sigil -->
    <filter id="og-glow" x="-20%" y="-20%" width="140%" height="140%">
      <feGaussianBlur in="SourceGraphic" stdDeviation="4" result="blur"/>
      <feColorMatrix in="blur" type="matrix"
        values="0.78 0 0 0 0
                0 0.47 0 0 0
                0 0    0 0 0
                0 0    0 0.35 0" result="glow"/>
      <feMerge>
        <feMergeNode in="glow"/>
        <feMergeNode in="SourceGraphic"/>
      </feMerge>
    </filter>

    <!-- Right-origin fire gradients and glow -->
    <linearGradient id="dragon-fire-core" x1="0" y1="0" x2="1" y2="0">
      <stop offset="0%" stop-color="#ffe8a3" stop-opacity="0"/>
      <stop offset="30%" stop-color="#f4aa3a" stop-opacity="0.08"/>
      <stop offset="62%" stop-color="#f4aa3a" stop-opacity="0.62"/>
      <stop offset="100%" stop-color="#ffe8a3" stop-opacity="0.95"/>
    </linearGradient>
    <linearGradient id="dragon-fire-outer" x1="0" y1="0" x2="1" y2="0">
      <stop offset="0%" stop-color="#d35a1f" stop-opacity="0"/>
      <stop offset="32%" stop-color="#d35a1f" stop-opacity="0.06"/>
      <stop offset="64%" stop-color="#d35a1f" stop-opacity="0.35"/>
      <stop offset="100%" stop-color="#f4aa3a" stop-opacity="0.68"/>
    </linearGradient>
    <filter id="dragon-fire-glow" x="-30%" y="-30%" width="160%" height="160%">
      <feGaussianBlur stdDeviation="6" result="blur"/>
      <feMerge>
        <feMergeNode in="blur"/>
        <feMergeNode in="SourceGraphic"/>
      </feMerge>
    </filter>
  </defs>

  <!-- Background fill -->
  <rect width="1200" height="630" fill="url(#og-bg)"/>
  <rect width="1200" height="630" fill="url(#og-grid)"/>

  <!-- Bronze frame border -->
  <rect x="28" y="28" width="1144" height="574" rx="3"
        fill="none" stroke="#c89824" stroke-width="1" opacity="0.22"/>

  <!-- Corner L-brackets (bronze, matching sigil language) -->
  <g stroke="#c89824" stroke-width="2.5" fill="none" stroke-linecap="butt" opacity="0.65">
    <path d="M28,70 V28 H70"/>
    <path d="M1172,70 V28 H1130"/>
    <path d="M28,560 V602 H70"/>
    <path d="M1172,560 V602 H1130"/>
  </g>

  <!-- ═══ LEFT: Sigil (100×100 → 340×340, centered at x=250 y=315) ═══ -->
  <g transform="translate(80, 145) scale(3.4)" filter="url(#og-glow)">
    <!-- 1. Shell octagon -->
    <path d="M13,0 H87 L100,13 V87 L87,100 H13 L0,87 V13 Z" fill="#0d0904"/>
    <!-- 2. Bronze ring -->
    <path d="M15,2 H85 L98,15 V85 L85,98 H15 L2,85 V15 Z" fill="url(#sigil-bronze-v)"/>
    <!-- 3. Content octagon -->
    <path d="M25,12 H75 L88,25 V75 L75,88 H25 L12,75 V25 Z" fill="url(#sigil-content-bg)"/>
    <!-- 4. Castle domain mark -->
    <g stroke="#d4b860" fill="none">
      <path d="M28,78 V32 H32 V24 H40 V32 H46 V24 H54 V32 H60 V24 H68 V32 H72 V78 Z"
            stroke-width="1.8" stroke-linejoin="miter" stroke-linecap="square" opacity="0.92"/>
      <line x1="28" y1="47" x2="72" y2="47" stroke-width="0.9" opacity="0.50"/>
      <line x1="28" y1="61" x2="72" y2="61" stroke-width="0.9" opacity="0.50"/>
      <rect x="36" y="34" width="28" height="12" stroke-width="1.0" opacity="0.68"/>
      <rect x="30" y="49" width="13" height="10" stroke-width="1.0" opacity="0.63"/>
      <rect x="57" y="49" width="13" height="10" stroke-width="1.0" opacity="0.63"/>
      <rect x="30" y="62" width="40" height="12" stroke-width="1.0" opacity="0.63"/>
      <line x1="43" y1="62" x2="43" y2="74" stroke-width="0.8" opacity="0.42"/>
      <line x1="57" y1="62" x2="57" y2="74" stroke-width="0.8" opacity="0.42"/>
      <line x1="50" y1="46" x2="36.5" y2="52" stroke-width="0.8" opacity="0.38"/>
      <line x1="50" y1="46" x2="63.5" y2="52" stroke-width="0.8" opacity="0.38"/>
      <line x1="36.5" y1="59" x2="36.5" y2="62" stroke-width="0.8" opacity="0.38"/>
      <line x1="63.5" y1="59" x2="63.5" y2="62" stroke-width="0.8" opacity="0.38"/>
      <circle cx="50" cy="55" r="22" stroke-width="0.8" opacity="0.13"/>
    </g>
    <!-- Domain nodes -->
    <g fill="#d4b860">
      <circle cx="50"   cy="40"  r="2.0"/>
      <circle cx="36.5" cy="54"  r="1.5"/>
      <circle cx="63.5" cy="54"  r="1.5"/>
      <circle cx="36"   cy="68"  r="1.1"/>
      <circle cx="50"   cy="68"  r="1.1"/>
      <circle cx="64"   cy="68"  r="1.1"/>
    </g>
    <!-- L-bracket ornaments -->
    <g stroke="#c89824" stroke-width="2" fill="none" stroke-linecap="butt">
      <path d="M13,22 H22 V13"/>
      <path d="M87,22 H78 V13"/>
      <path d="M13,78 H22 V87"/>
      <path d="M87,78 H78 V87"/>
    </g>
  </g>

  <!-- Subtle arcane ring behind sigil -->
  <circle cx="250" cy="315" r="198" fill="none" stroke="#c89824" stroke-width="0.8" opacity="0.05"/>

  <!-- Bronze vertical divider -->
  <line x1="490" y1="70" x2="490" y2="560" stroke="url(#og-divider)" stroke-width="1.5"/>

        <!-- Fire from off-canvas right, above title, fading left -->
        <g transform="translate(0, -18)" filter="url(#dragon-fire-glow)">
      <path d="M610,138 C742,118 872,112 1002,120 C1098,126 1182,122 1248,86 C1208,132 1148,162 1064,170 C924,182 770,180 610,190 Z"
        fill="url(#dragon-fire-outer)" opacity="0.8"/>
      <path d="M640,144 C760,130 880,126 990,132 C1082,136 1158,132 1222,106 C1188,146 1134,168 1058,176 C934,188 792,188 640,196 Z"
        fill="url(#dragon-fire-core)" opacity="0.9"/>
      <path d="M668,156 C772,148 872,146 968,150 C1040,154 1104,150 1156,132 C1124,162 1078,178 1014,184 C904,194 788,194 668,200 Z"
        fill="#d35a1f" opacity="0.22"/>
    </g>

  <!-- ═══ RIGHT: Text content ═══ -->

  <!-- Title: DDDnD -->
  <text x="530" y="228"
        font-family="'Georgia', 'Times New Roman', serif"
        font-size="90" font-weight="700"
        fill="#d4b860"
        letter-spacing="8">DDDnD</text>

  <!-- Bronze rule below title -->
  <line x1="530" y1="250" x2="1060" y2="250"
        stroke="#c89824" stroke-width="1" opacity="0.38"/>

  <!-- Subtitle -->
  <text x="532" y="298"
        font-family="'Georgia', 'Times New Roman', serif"
        font-size="24" font-weight="400"
        fill="#b08224"
        letter-spacing="1.5">Domain-Driven Design n' Dragons</text>

  <!-- Tagline -->
  <text x="532" y="362"
        font-family="'Helvetica Neue', 'Arial', sans-serif"
        font-size="18" font-weight="400"
        fill="#5a4c2a"
        letter-spacing="0.5">A strategy game about navigating</text>
  <text x="532" y="390"
        font-family="'Helvetica Neue', 'Arial', sans-serif"
        font-size="18" font-weight="400"
        fill="#5a4c2a"
        letter-spacing="0.5">software architecture decisions</text>

  <!-- Metric score indicators -->
  <g transform="translate(532, 438)" opacity="0.92">
    <circle cx="0"   cy="0" r="5" fill="#34d399"/>
    <text x="14"  y="5" font-family="'Helvetica Neue', 'Arial', sans-serif" font-size="12" fill="#8e7544" letter-spacing="1.5">DOMAIN CLARITY</text>
    <circle cx="190" cy="0" r="5" fill="#c89824"/>
    <text x="204" y="5" font-family="'Helvetica Neue', 'Arial', sans-serif" font-size="12" fill="#8e7544" letter-spacing="1.5">DELIVERY</text>
    <circle cx="310" cy="0" r="5" fill="#c47a2a"/>
    <text x="324" y="5" font-family="'Helvetica Neue', 'Arial', sans-serif" font-size="12" fill="#8e7544" letter-spacing="1.5">MORALE</text>
  </g>
  <g transform="translate(532, 468)" opacity="0.92">
    <circle cx="0"   cy="0" r="5" fill="#d4b860"/>
    <text x="14"  y="5" font-family="'Helvetica Neue', 'Arial', sans-serif" font-size="12" fill="#8e7544" letter-spacing="1.5">USER TRUST</text>
    <circle cx="190" cy="0" r="5" fill="#7a6c44"/>
    <text x="204" y="5" font-family="'Helvetica Neue', 'Arial', sans-serif" font-size="12" fill="#8e7544" letter-spacing="1.5">BUDGET</text>
    <circle cx="310" cy="0" r="5" fill="#2dd4bf"/>
    <text x="324" y="5" font-family="'Helvetica Neue', 'Arial', sans-serif" font-size="12" fill="#8e7544" letter-spacing="1.5">MAINTAINABILITY</text>
  </g>

  <!-- Bottom attribution -->
  <text x="845" y="572"
        font-family="'Helvetica Neue', 'Arial', sans-serif"
      font-size="13" fill="#6f5730"
        text-anchor="middle" letter-spacing="4">OPEN SOURCE STRATEGY GAME</text>
    <text x="845" y="592"
      font-family="'Helvetica Neue', 'Arial', sans-serif"
      font-size="14" fill="#9a7b44"
      text-anchor="middle" letter-spacing="1.2">https://dddnd.app</text>
</svg>
